<?xml version="1.0" standalone="no"?>
<!DOCTYPE svg PUBLIC "-//W3C//DTD SVG 1.1//EN" "http://www.w3.org/Graphics/SVG/1.1/DTD/svg11.dtd" >
<svg xmlns="http://www.w3.org/2000/svg" xmlns:xlink="http://www.w3.org/1999/xlink" version="1.1">
<metadata>
Created by FontForge 20161116 at Mon Jun 13 17:25:38 2011
 By Jimmy Warting
Designed by Christian Schwartz 2004-2010. Originally designed 1957-1961 by Max Miedinger with art direction by Eduard Hoffmann. Released as Neue Haas Grotesk by the Haas'sche Schriftgiesserei, and then revised and released as Helvetica by Linotype AG. Revival originally commissioned in 2004 by Mark Porter at The Guardian. Completed in 2010 for Richard Turley at Bloomberg Businessweek. Thinnest weight designed by Berton Hasebe.
</metadata>
<defs>
<font id="NeueHaasGroteskText-Regular" horiz-adv-x="500" >
  <font-face 
    font-family="NeueHaasGroteskText"
    font-weight="400"
    font-stretch="normal"
    units-per-em="1000"
    panose-1="2 0 5 3 0 0 0 2 0 3"
    ascent="800"
    descent="-200"
    x-height="537"
    cap-height="744"
    bbox="-278 -245 1250 978"
    underline-thickness="50"
    underline-position="-100"
    unicode-range="U+0020-FB02"
  />
<missing-glyph horiz-adv-x="266" 
 />
    <glyph glyph-name=".notdef" horiz-adv-x="266" 
 />
    <glyph glyph-name="space" unicode=" " horiz-adv-x="266" 
 />
    <glyph glyph-name="exclam" unicode="!" horiz-adv-x="264" 
d="M107 216l-26 295v233h101v-233l-24 -295h-51zM78 0v110h109v-110h-109z" />
    <glyph glyph-name="quotedbl" unicode="&#x22;" horiz-adv-x="353" 
d="M216 496v248h84v-248h-84zM53 496v248h84v-248h-84z" />
    <glyph glyph-name="numbersign" unicode="#" horiz-adv-x="622" 
d="M75 439l12 80h103l28 194h74l-28 -194h138l28 194h75l-28 -194h105l-13 -80h-103l-22 -155h103l-13 -81h-101l-29 -203h-75l29 203h-138l-28 -203h-75l29 203h-106l13 81h104l22 155h-104zM253 439l-21 -155h137l22 155h-138z" />
    <glyph glyph-name="dollar" unicode="$" horiz-adv-x="640" 
d="M293 -110v105c-178 11 -254 119 -259 230h96c9 -87 56 -143 163 -154v260c-131 29 -227 64 -227 198c0 118 92 190 227 195v73h59v-73c140 -11 211 -79 226 -187h-94c-8 64 -53 103 -132 112v-241c137 -30 242 -64 242 -205c0 -125 -105 -201 -242 -209v-104h-59z
M499 199c0 74 -52 94 -147 118v-246c80 8 147 52 147 128zM157 534c0 -64 43 -93 136 -114v230c-81 -7 -136 -47 -136 -116z" />
    <glyph glyph-name="percent" unicode="%" horiz-adv-x="896" 
d="M207 316c-100 0 -170 81 -170 207c0 125 74 206 170 206c98 0 170 -78 170 -206c0 -126 -70 -207 -170 -207zM208 0l407 712h73l-406 -712h-74zM689 -15c-100 0 -170 81 -170 206c0 127 74 206 170 206c98 0 170 -77 170 -206c0 -125 -70 -206 -170 -206zM207 382
c60 0 88 58 88 141c0 79 -32 141 -88 141s-86 -60 -86 -141c0 -80 30 -141 86 -141zM689 51c60 0 87 57 87 140c0 80 -31 142 -87 142s-86 -59 -86 -142c0 -80 30 -140 86 -140z" />
    <glyph glyph-name="ampersand" unicode="&#x26;" horiz-adv-x="660" 
d="M280 -15c-123 0 -238 80 -238 208c0 112 74 169 170 225l-11 15c-48 60 -69 111 -69 168c0 88 73 156 172 156c88 0 171 -54 171 -162c0 -94 -66 -142 -142 -188c26 -31 113 -139 153 -190c17 43 27 92 28 148h81c-1 -80 -17 -154 -52 -218l118 -147h-114l-56 71l-2 2
c-52 -56 -121 -88 -209 -88zM285 67c60 0 112 26 152 70l-180 225c-68 -45 -119 -91 -119 -168c0 -76 67 -127 147 -127zM221 601c0 -44 19 -80 54 -121l14 -18c64 41 95 79 95 135c0 51 -32 84 -80 84s-83 -33 -83 -80z" />
    <glyph glyph-name="quotesingle" unicode="'" horiz-adv-x="190" 
d="M53 496v248h84v-248h-84z" />
    <glyph glyph-name="parenleft" unicode="(" horiz-adv-x="338" 
d="M313 -125h-75c-91 128 -158 274 -158 469c0 182 73 331 158 440h75c-73 -117 -126 -265 -126 -440c0 -185 46 -327 126 -469z" />
    <glyph glyph-name="parenright" unicode=")" horiz-adv-x="338" 
d="M102 -125h-77c82 141 128 284 128 469c0 175 -52 323 -128 440h77c83 -110 156 -258 156 -440c0 -195 -68 -341 -156 -469z" />
    <glyph glyph-name="asterisk" unicode="*" horiz-adv-x="407" 
d="M132 429l-49 33l70 103l-109 37l20 53l108 -34v123h64v-123l107 34l20 -53l-108 -37l71 -103l-49 -33l-72 109z" />
    <glyph glyph-name="plus" unicode="+" horiz-adv-x="601" 
d="M63 303v73h199v206h77v-206h199v-73h-199v-207h-77v207h-199z" />
    <glyph glyph-name="comma" unicode="," horiz-adv-x="216" 
d="M55 -155v52c28 9 49 30 49 93v10h-50v110h108v-120c0 -87 -36 -136 -107 -145z" />
    <glyph glyph-name="hyphen" unicode="-" horiz-adv-x="374" 
d="M48 243v84h278v-84h-278z" />
    <glyph glyph-name="period" unicode="." horiz-adv-x="216" 
d="M54 0v110h108v-110h-108z" />
    <glyph glyph-name="slash" unicode="/" horiz-adv-x="438" 
d="M-23 -125l361 908h94l-362 -908h-93z" />
    <glyph glyph-name="zero" unicode="0" horiz-adv-x="667" 
d="M333 -16c-176 0 -280 146 -280 373c0 229 110 372 281 372c172 0 280 -140 280 -372c0 -227 -101 -373 -281 -373zM334 66c124 0 180 111 180 291c0 177 -59 291 -180 291c-122 0 -182 -112 -182 -291c0 -177 60 -291 182 -291z" />
    <glyph glyph-name="one" unicode="1" horiz-adv-x="394" 
d="M208 0v513h-165v64c91 3 174 35 187 140h75v-717h-97z" />
    <glyph glyph-name="two" unicode="2" horiz-adv-x="598" 
d="M540 0h-500c4 87 33 147 76 196c55 60 128 101 196 142c89 51 141 87 141 169c0 84 -56 141 -148 141c-47 0 -83 -15 -109 -44c-28 -29 -40 -68 -40 -128h-99c0 80 23 137 66 181c44 47 111 71 190 71c146 0 240 -94 240 -219c0 -132 -87 -178 -194 -239
c-74 -45 -173 -99 -199 -173l-2 -8h382v-89z" />
    <glyph glyph-name="three" unicode="3" horiz-adv-x="613" 
d="M313 -16c-80 0 -150 21 -201 64c-52 43 -83 103 -84 183h94c3 -105 72 -168 188 -168c95 0 162 48 162 145c0 88 -64 133 -180 133h-45v74h44c107 0 161 44 161 119c0 76 -66 120 -149 120c-99 0 -159 -65 -159 -154h-93c0 133 96 229 255 229c134 0 240 -73 240 -196
c0 -80 -47 -126 -118 -149v-3c100 -27 143 -89 143 -181c0 -140 -113 -216 -258 -216z" />
    <glyph glyph-name="four" unicode="4" horiz-adv-x="623" 
d="M387 0v173h-345v86l360 461h79v-472h116v-75h-116v-173h-94zM120 246v-2c13 1 26 1 38 2c21 1 47 2 68 2h161v242c0 19 1 44 2 67c1 12 2 25 3 38h-2c-6 -11 -13 -22 -20 -33c-12 -19 -27 -41 -42 -60l-132 -168c-15 -19 -34 -38 -49 -57c-9 -11 -18 -21 -27 -31z" />
    <glyph glyph-name="five" unicode="5" horiz-adv-x="590" 
d="M291 -15c-149 0 -251 91 -259 206h95c15 -72 65 -123 162 -123c100 0 162 66 162 167c0 104 -69 164 -154 164c-80 0 -129 -31 -156 -66h-92l77 379h380v-84h-312l-46 -212h2c40 41 92 64 165 64c120 0 234 -90 234 -247c0 -153 -110 -248 -258 -248z" />
    <glyph glyph-name="six" unicode="6" horiz-adv-x="626" 
d="M334 -16c-80 0 -139 25 -182 68c-75 68 -99 164 -99 308c0 112 24 204 71 269c47 64 116 100 208 100c143 0 214 -95 227 -183h-95c-8 48 -49 104 -130 104c-134 0 -185 -109 -190 -293h2c47 79 109 112 196 112c130 0 237 -108 237 -240c0 -135 -108 -245 -245 -245z
M332 61c90 0 157 66 157 165c0 98 -68 165 -160 165c-100 0 -167 -64 -167 -164c0 -99 74 -166 170 -166z" />
    <glyph glyph-name="seven" unicode="7" horiz-adv-x="555" 
d="M235 0h-102c16 251 146 498 307 629v2c-11 -1 -24 -1 -37 -2c-23 -1 -57 -2 -94 -2h-277v85h501v-77c-144 -128 -285 -356 -298 -635z" />
    <glyph glyph-name="eight" unicode="8" horiz-adv-x="628" 
d="M317 -16c-136 0 -276 62 -276 220c0 100 65 161 156 185v3c-77 23 -120 77 -120 150c0 114 103 188 237 188c136 0 238 -72 238 -187c0 -73 -43 -127 -119 -151v-3c92 -23 153 -89 153 -185c0 -159 -133 -220 -269 -220zM314 425c89 0 144 42 144 114s-55 113 -144 113
s-144 -41 -144 -113s55 -114 144 -114zM317 63c108 0 173 53 173 142c0 91 -65 147 -176 147c-109 0 -174 -56 -174 -147s65 -142 177 -142z" />
    <glyph glyph-name="nine" unicode="9" horiz-adv-x="626" 
d="M305 -16c-141 0 -239 87 -247 192h97c8 -59 58 -113 148 -113c51 0 91 16 119 48c41 45 59 120 63 233h-2c-47 -64 -112 -101 -196 -101c-131 0 -239 109 -239 242c0 136 106 244 253 244c72 0 125 -23 168 -55c81 -63 107 -163 107 -320c0 -143 -29 -246 -98 -309
c-44 -41 -102 -61 -173 -61zM300 321c104 0 170 67 170 166c0 98 -75 165 -169 165c-96 0 -163 -67 -163 -165c0 -96 71 -166 162 -166z" />
    <glyph glyph-name="colon" unicode=":" horiz-adv-x="222" 
d="M57 316v110h108v-110h-108zM57 0v110h108v-110h-108z" />
    <glyph glyph-name="semicolon" unicode=";" horiz-adv-x="222" 
d="M57 316v110h108v-110h-108zM58 -155v52c28 9 49 30 49 93v10h-50v110h108v-120c0 -87 -36 -136 -107 -145z" />
    <glyph glyph-name="less" unicode="&#x3c;" horiz-adv-x="548" 
d="M484 97l-424 180v93l424 180v-83l-229 -93c-27 -11 -60 -21 -87 -32c-16 -6 -32 -12 -47 -17v-2c15 -5 31 -11 47 -16c27 -9 60 -21 87 -32l229 -93v-85z" />
    <glyph glyph-name="equal" unicode="=" horiz-adv-x="601" 
d="M64 382v73h473v-73h-473zM64 196v73h473v-73h-473z" />
    <glyph glyph-name="greater" unicode="&#x3e;" horiz-adv-x="548" 
d="M64 550l424 -180v-93l-424 -180v84l230 92c25 11 59 21 86 32c16 6 32 12 47 17v2c-15 5 -31 11 -47 16c-27 9 -61 21 -86 32l-230 93v85z" />
    <glyph glyph-name="question" unicode="?" horiz-adv-x="547" 
d="M204 0v110h109v-110h-109zM302 216h-87c0 99 31 145 106 210c46 40 89 73 89 137s-47 112 -131 112c-104 0 -156 -68 -159 -159h-94c3 121 81 241 253 241c141 0 229 -84 229 -192c0 -82 -46 -129 -94 -169c-43 -36 -69 -60 -88 -84c-19 -25 -23 -52 -24 -96z" />
    <glyph glyph-name="at" unicode="@" horiz-adv-x="935" 
d="M430 95c-102 0 -167 76 -167 186c0 148 88 245 200 245c60 0 99 -29 119 -69h2l7 60h88l-33 -271c-7 -51 11 -79 50 -79c58 0 121 47 121 187c0 216 -145 319 -333 319c-195 0 -364 -140 -364 -378c0 -195 120 -339 337 -339c71 0 137 12 198 37l25 -58
c-72 -33 -142 -45 -219 -45c-246 0 -418 161 -418 406c0 285 220 445 443 445c207 0 406 -132 406 -385c0 -165 -84 -257 -201 -257c-61 0 -105 30 -120 79h-1c-31 -52 -80 -83 -140 -83zM443 163c83 0 126 77 126 178c0 72 -34 117 -98 117c-80 0 -117 -76 -117 -175
c0 -69 26 -120 89 -120z" />
    <glyph glyph-name="A" unicode="A" horiz-adv-x="698" 
d="M19 0l272 744h114l274 -744h-112l-74 217h-293l-76 -217h-105zM301 505l-73 -208h238l-71 208c-13 36 -24 75 -32 106c-5 17 -9 35 -13 52h-3c-5 -17 -9 -35 -14 -53c-9 -31 -20 -70 -32 -105z" />
    <glyph glyph-name="B" unicode="B" horiz-adv-x="691" 
d="M77 0v744h320c77 0 136 -21 178 -63c31 -32 50 -74 50 -129c0 -81 -46 -133 -126 -156v-3c91 -21 156 -80 156 -179c0 -60 -21 -109 -57 -145c-43 -44 -106 -69 -186 -69h-335zM179 427h204c88 0 139 42 139 118c0 71 -47 111 -127 111h-216v-229zM179 90h227
c50 0 87 12 112 37c22 21 33 49 33 84c0 89 -63 133 -151 133h-221v-254z" />
    <glyph glyph-name="C" unicode="C" horiz-adv-x="756" 
d="M399 -15c-212 0 -350 163 -350 387c0 219 132 388 353 388c88 0 156 -25 207 -66c53 -43 84 -103 95 -175h-102c-17 92 -87 152 -202 152c-157 0 -247 -127 -247 -299c0 -179 98 -298 248 -298c134 0 201 91 209 197h102c0 -73 -36 -157 -89 -207
c-53 -53 -127 -79 -224 -79z" />
    <glyph glyph-name="D" unicode="D" horiz-adv-x="732" 
d="M77 0v744h275c222 0 332 -151 332 -375c0 -221 -116 -369 -339 -369h-268zM180 89h161c168 0 237 108 237 280s-63 286 -231 286h-167v-566z" />
    <glyph glyph-name="E" unicode="E" horiz-adv-x="666" 
d="M77 0v744h529v-90h-427v-225h386v-85h-386v-251h438v-93h-540z" />
    <glyph glyph-name="F" unicode="F" horiz-adv-x="622" 
d="M77 0v744h509v-90h-407v-223h339v-87h-339v-344h-102z" />
    <glyph glyph-name="G" unicode="G" horiz-adv-x="781" 
d="M658 0l-27 105h-3c-53 -81 -133 -121 -230 -121c-104 0 -191 40 -252 108c-63 68 -97 164 -97 277s32 210 95 281c60 68 147 109 263 109c176 0 275 -95 304 -231h-106c-23 84 -84 143 -199 143c-174 0 -253 -130 -253 -302c0 -176 103 -296 250 -296
c148 0 219 101 219 218v16h-216v87h317v-394h-65z" />
    <glyph glyph-name="H" unicode="H" horiz-adv-x="743" 
d="M77 0v744h102v-313h384v313h103v-744h-103v348h-384v-348h-102z" />
    <glyph glyph-name="I" unicode="I" horiz-adv-x="260" 
d="M79 0v744h102v-744h-102z" />
    <glyph glyph-name="J" unicode="J" horiz-adv-x="539" 
d="M254 -15c-139 0 -223 74 -223 245v16h100v-13c0 -125 40 -163 124 -163c73 0 115 38 115 127v547h102v-553c0 -60 -17 -110 -53 -146c-36 -37 -90 -60 -165 -60z" />
    <glyph glyph-name="K" unicode="K" horiz-adv-x="686" 
d="M77 0v744h102v-230c0 -51 -1 -101 -4 -137l359 368h128l-299 -299l323 -446h-119l-275 380l-113 -111v-269h-102z" />
    <glyph glyph-name="L" unicode="L" horiz-adv-x="595" 
d="M77 0v744h102v-651h385v-93h-487z" />
    <glyph glyph-name="M" unicode="M" horiz-adv-x="881" 
d="M77 0v744h132l155 -404c15 -41 34 -99 49 -147c9 -28 17 -57 26 -86h2c9 29 18 58 27 86c15 48 34 106 49 147l152 404h136v-744h-98v450c0 33 0 80 3 120c1 23 2 46 3 71h-2l-18 -63c-11 -35 -23 -78 -34 -107l-181 -471h-80l-181 471c-11 29 -23 72 -34 107l-18 63h-2
c1 -25 2 -48 3 -71c1 -40 3 -87 3 -120v-450h-92z" />
    <glyph glyph-name="N" unicode="N" horiz-adv-x="741" 
d="M77 0v744h107l305 -466c19 -28 39 -64 55 -95c9 -17 19 -35 28 -53h3c-1 19 -3 37 -4 56c-3 32 -3 72 -3 103v455h96v-744h-106l-304 466c-19 28 -39 63 -56 94c-10 17 -20 35 -29 53h-2c1 -19 2 -37 3 -56c1 -32 3 -70 3 -101v-456h-96z" />
    <glyph glyph-name="O" unicode="O" horiz-adv-x="826" 
d="M413 -16c-225 0 -364 167 -364 388c0 223 139 388 364 388c224 0 365 -165 365 -388c0 -221 -141 -388 -365 -388zM413 74c169 0 259 127 259 298s-90 300 -259 300c-168 0 -260 -129 -260 -300s92 -298 260 -298z" />
    <glyph glyph-name="P" unicode="P" horiz-adv-x="647" 
d="M77 0v744h313c80 0 139 -25 178 -72c33 -39 53 -86 53 -146c0 -137 -80 -220 -241 -220h-200v-306h-103zM180 655v-266h190c101 0 149 50 149 134c0 88 -53 132 -145 132h-194z" />
    <glyph glyph-name="Q" unicode="Q" horiz-adv-x="825" 
d="M723 -66l-121 98c-53 -31 -117 -48 -189 -48c-225 0 -364 167 -364 388c0 223 139 388 364 388c224 0 364 -165 364 -388c0 -119 -39 -219 -110 -290l107 -86zM413 72c41 0 78 8 111 23l-96 78l50 62l114 -92c52 55 80 134 80 229c0 171 -90 300 -259 300
c-168 0 -260 -129 -260 -300c0 -170 92 -300 260 -300z" />
    <glyph glyph-name="R" unicode="R" horiz-adv-x="700" 
d="M77 0v744h348c133 0 223 -81 223 -205c0 -91 -37 -155 -136 -186v-3c84 -24 107 -76 115 -182c8 -117 20 -153 34 -163v-5h-109c-17 14 -19 48 -27 167c-7 105 -51 143 -148 143h-198v-310h-102zM179 656v-264h213c101 0 151 51 151 132c0 88 -41 132 -146 132h-218z" />
    <glyph glyph-name="S" unicode="S" horiz-adv-x="672" 
d="M350 -15c-208 0 -311 114 -319 256h101c12 -113 85 -174 221 -174c99 0 171 44 171 134c0 97 -86 120 -216 149c-133 27 -246 67 -246 209c0 125 106 199 258 199c184 0 264 -92 283 -219h-99c-13 91 -78 139 -183 139c-99 0 -162 -39 -162 -114c0 -81 81 -103 193 -127
c144 -29 275 -66 275 -232c0 -141 -116 -220 -277 -220z" />
    <glyph glyph-name="T" unicode="T" horiz-adv-x="654" 
d="M31 654v90h592v-90h-245v-654h-103v654h-244z" />
    <glyph glyph-name="U" unicode="U" horiz-adv-x="704" 
d="M352 -11c-167 0 -287 74 -287 253v502h102v-493c0 -123 67 -175 187 -175c116 0 183 52 183 175v493h102v-502c0 -179 -124 -253 -287 -253z" />
    <glyph glyph-name="V" unicode="V" horiz-adv-x="664" 
d="M275 0l-257 744h110l163 -496c9 -27 20 -67 29 -100c5 -19 10 -39 15 -59h2c5 21 10 41 15 60c9 33 19 72 28 99l161 496h106l-260 -744h-112z" />
    <glyph glyph-name="W" unicode="W" horiz-adv-x="965" 
d="M212 0l-194 744h107l107 -438c9 -37 17 -86 24 -126c3 -23 7 -47 11 -71h2c4 25 8 49 12 72c7 40 16 89 27 126l120 437h108l116 -437c9 -37 20 -86 27 -126c4 -23 8 -47 12 -72h2c4 24 8 48 12 71c7 40 16 89 25 126l111 438h105l-207 -744h-99l-122 476
c-9 33 -17 79 -24 118c-4 22 -8 45 -11 68h-2c-4 -23 -8 -46 -12 -68c-7 -39 -16 -85 -24 -117l-131 -477h-102z" />
    <glyph glyph-name="X" unicode="X" horiz-adv-x="667" 
d="M23 0l256 382l-237 362h118l111 -179c15 -24 32 -54 45 -79c7 -15 15 -29 23 -43h2c8 14 16 28 24 43c15 25 31 55 46 79l112 179h112l-241 -363l250 -381h-122l-118 194c-15 24 -32 55 -45 80c-7 15 -15 29 -23 44h-2c-9 -15 -17 -29 -25 -44c-15 -25 -33 -56 -48 -80
l-122 -194h-116z" />
    <glyph glyph-name="Y" unicode="Y" horiz-adv-x="678" 
d="M286 0v312l-268 432h114l134 -224c15 -27 33 -61 48 -89l25 -50h2c8 17 16 33 25 50c15 28 33 62 49 89l135 224h109l-271 -437v-307h-102z" />
    <glyph glyph-name="Z" unicode="Z" horiz-adv-x="668" 
d="M39 0v95l363 463c16 20 37 45 56 65c11 12 22 24 33 35v3c-15 -1 -31 -1 -47 -2c-27 -1 -61 -2 -86 -2h-292v87h539v-80l-358 -463c-19 -23 -43 -49 -63 -72c-12 -13 -24 -26 -35 -39v-3c16 1 32 1 49 2c28 1 62 2 90 2h334v-91h-583z" />
    <glyph glyph-name="bracketleft" unicode="[" horiz-adv-x="356" 
d="M87 -125v909h228v-74h-134v-757h134v-78h-228z" />
    <glyph glyph-name="backslash" unicode="\" horiz-adv-x="438" 
d="M461 -125h-93l-362 908h94z" />
    <glyph glyph-name="bracketright" unicode="]" horiz-adv-x="356" 
d="M40 -125v78h133v757h-133v74h229v-909h-229z" />
    <glyph glyph-name="asciicircum" unicode="^" horiz-adv-x="491" 
d="M21 445l175 299h99l175 -299h-99l-124 218h-2l-125 -218h-99z" />
    <glyph glyph-name="underscore" unicode="_" horiz-adv-x="427" 
d="M-2 -173v68h431v-68h-431z" />
    <glyph glyph-name="grave" unicode="`" horiz-adv-x="538" 
d="M237 625l-89 145h114l53 -145h-78z" />
    <glyph glyph-name="a" unicode="a" horiz-adv-x="562" 
d="M224 -11c-102 0 -182 50 -182 153c0 125 92 153 231 169c80 8 130 23 130 77c0 59 -40 94 -115 94c-85 0 -126 -40 -129 -104h-90c3 91 74 172 218 172c51 0 95 -9 130 -29c45 -27 72 -74 72 -146v-251c0 -43 10 -67 57 -56h4v-65c-13 -4 -27 -8 -50 -8
c-57 0 -84 27 -95 84h-1c-34 -47 -90 -90 -180 -90zM247 57c107 0 157 80 157 141v88c-27 -17 -74 -30 -118 -38c-88 -16 -146 -30 -146 -105c0 -69 53 -86 107 -86z" />
    <glyph glyph-name="b" unicode="b" horiz-adv-x="594" 
d="M327 -16c-72 0 -133 32 -168 92h-3v-76h-92v744h93v-190c0 -41 -2 -79 -3 -102h3c35 57 94 98 173 98c136 0 229 -107 229 -283c0 -173 -88 -283 -232 -283zM317 61c99 0 147 88 147 205c0 118 -47 206 -146 206c-114 0 -166 -91 -166 -206c0 -117 56 -205 165 -205z" />
    <glyph glyph-name="c" unicode="c" horiz-adv-x="560" 
d="M297 -15c-160 0 -262 126 -262 283c0 156 102 282 262 282c129 0 213 -72 232 -188h-93c-13 71 -60 113 -139 113c-110 0 -167 -91 -167 -207s57 -207 167 -207c84 0 134 49 141 129h92c-12 -129 -96 -205 -233 -205z" />
    <glyph glyph-name="d" unicode="d" horiz-adv-x="596" 
d="M272 -16c-145 0 -237 110 -237 283c0 176 102 283 235 283c76 0 135 -38 170 -95h2c-3 24 -3 63 -3 99v190h93v-744h-92v77h-2c-35 -59 -90 -93 -166 -93zM279 61c115 0 165 88 165 205c0 121 -57 206 -165 206c-99 0 -149 -88 -149 -206c0 -117 50 -205 149 -205z" />
    <glyph glyph-name="e" unicode="e" horiz-adv-x="577" 
d="M297 -15c-165 0 -262 126 -262 283c0 156 102 282 257 282c80 0 141 -31 184 -83c44 -53 66 -129 66 -221h-412c8 -105 64 -185 168 -185c75 0 125 35 142 92h91c-24 -100 -110 -168 -234 -168zM292 478c-96 0 -149 -70 -160 -165h311c-5 104 -58 165 -151 165z" />
    <glyph glyph-name="f" unicode="f" horiz-adv-x="350" 
d="M31 464v73h83v74c0 49 13 85 38 107c27 23 66 31 118 31c15 0 31 -1 48 -2v-77c-88 5 -111 -7 -111 -63v-70h110v-73h-110v-464h-93v464h-83z" />
    <glyph glyph-name="g" unicode="g" horiz-adv-x="595" 
d="M291 -188c-141 0 -220 55 -231 151h87c8 -56 62 -79 142 -79c96 0 149 42 149 134v15c0 31 1 60 2 77h-2c-37 -53 -84 -86 -160 -86c-137 0 -235 107 -235 263c0 165 104 263 230 263c77 0 128 -29 163 -84h2v71h92v-515c0 -72 -24 -124 -65 -159
c-43 -35 -102 -51 -174 -51zM287 100c117 0 157 82 157 191c0 113 -50 182 -158 182c-99 0 -148 -74 -148 -187c0 -115 52 -186 149 -186z" />
    <glyph glyph-name="h" unicode="h" horiz-adv-x="571" 
d="M157 744v-195c0 -27 -2 -63 -3 -90h3c40 57 93 91 172 91c113 0 181 -62 181 -175v-375h-92v364c0 69 -45 108 -118 108c-84 0 -143 -59 -143 -145v-327h-93v744h93z" />
    <glyph glyph-name="i" unicode="i" horiz-adv-x="221" 
d="M62 636v108h97v-108h-97zM64 0v537h93v-537h-93z" />
    <glyph glyph-name="j" unicode="j" horiz-adv-x="222" 
d="M30 -170c-20 0 -37 2 -52 5v74h3c10 -2 20 -3 29 -3c36 1 54 14 54 53v578h93v-583c0 -52 -13 -81 -36 -100c-24 -19 -55 -24 -91 -24zM62 636v108h97v-108h-97z" />
    <glyph glyph-name="k" unicode="k" horiz-adv-x="542" 
d="M417 0l-184 283l-76 -72v-211h-93v744h93v-353c0 -19 -1 -56 -4 -83l233 229h116l-205 -193l229 -344h-109z" />
    <glyph glyph-name="l" unicode="l" horiz-adv-x="227" 
d="M67 0v744h93v-744h-93z" />
    <glyph glyph-name="m" unicode="m" horiz-adv-x="852" 
d="M64 0v537h92v-80h3c33 59 90 93 159 93c65 0 116 -33 139 -100h2c39 68 101 100 166 100c99 0 166 -62 166 -175v-375h-93v367c0 67 -42 105 -97 105c-68 0 -127 -59 -127 -141v-331h-92v367c0 67 -36 105 -92 105c-64 0 -133 -59 -133 -141v-331h-93z" />
    <glyph glyph-name="n" unicode="n" horiz-adv-x="571" 
d="M156 537v-76h3c39 55 91 89 170 89c113 0 181 -62 181 -175v-375h-92v364c0 69 -45 108 -118 108c-84 0 -143 -59 -143 -145v-327h-93v537h92z" />
    <glyph glyph-name="o" unicode="o" horiz-adv-x="594" 
d="M298 -15c-162 0 -263 126 -263 283c0 156 101 282 263 282s261 -126 261 -282c0 -157 -99 -283 -261 -283zM297 61c110 0 167 91 167 207s-57 208 -167 208s-167 -92 -167 -208s57 -207 167 -207z" />
    <glyph glyph-name="p" unicode="p" horiz-adv-x="596" 
d="M64 -182v719h92v-84h3c40 61 94 97 171 97c136 0 231 -107 231 -283c0 -172 -89 -283 -234 -283c-73 0 -132 30 -169 87h-3c1 -19 2 -49 2 -90v-163h-93zM317 61c99 0 149 87 149 204c0 118 -48 206 -148 206c-114 0 -166 -91 -166 -206c0 -113 46 -204 165 -204z" />
    <glyph glyph-name="q" unicode="q" horiz-adv-x="596" 
d="M439 -182v163c0 8 3 58 3 90h-3c-41 -57 -91 -87 -167 -87c-145 0 -234 111 -234 283c0 176 98 283 231 283c77 0 133 -34 168 -93h3v80h91v-719h-92zM280 61c118 0 164 87 164 204c0 121 -52 206 -165 206c-99 0 -147 -88 -147 -206c0 -117 48 -204 148 -204z" />
    <glyph glyph-name="r" unicode="r" horiz-adv-x="379" 
d="M156 537v-97h3c33 63 87 104 159 104c15 0 23 -2 34 -6v-88h-3c-13 4 -22 5 -38 5c-83 0 -154 -63 -154 -163v-292h-93v537h92z" />
    <glyph glyph-name="s" unicode="s" horiz-adv-x="522" 
d="M270 -16c-149 0 -232 70 -240 179h94c11 -77 72 -104 148 -104c85 0 121 37 121 85c0 59 -45 74 -140 93c-105 22 -200 44 -200 162c0 92 72 150 197 150c135 0 202 -63 214 -156h-93c-8 56 -46 86 -123 86c-73 0 -104 -34 -104 -75c0 -57 52 -66 143 -85
c107 -21 199 -45 199 -170c0 -109 -90 -165 -216 -165z" />
    <glyph glyph-name="t" unicode="t" horiz-adv-x="351" 
d="M31 465v72h84v169h92v-169h111v-72h-111v-339c0 -39 20 -50 55 -50c16 0 36 4 47 7h3v-78c-25 -6 -50 -9 -75 -9c-72 1 -122 30 -122 109v360h-84z" />
    <glyph glyph-name="u" unicode="u" horiz-adv-x="564" 
d="M499 0h-92v75h-2c-39 -53 -85 -87 -162 -87c-112 0 -182 66 -182 179v370h93v-365c0 -68 42 -108 117 -108c83 0 135 62 135 146v327h93v-537z" />
    <glyph glyph-name="v" unicode="v" horiz-adv-x="493" 
d="M192 0l-187 537h99l94 -290c11 -36 24 -78 33 -113c5 -20 11 -39 16 -58h2c4 19 9 38 14 58c9 35 21 77 33 113l96 290h96l-193 -537h-103z" />
    <glyph glyph-name="w" unicode="w" horiz-adv-x="781" 
d="M180 0l-170 537h99l84 -298c8 -31 17 -69 24 -101c4 -19 8 -37 11 -56h2c3 17 7 35 11 53c7 31 16 69 25 102l81 300h88l80 -300c7 -29 16 -67 23 -99c4 -19 8 -38 11 -57h2c3 18 7 36 10 54c7 31 14 71 25 104l89 298h96l-175 -537h-93l-79 296c-7 27 -15 63 -22 94
c-4 18 -8 37 -12 56h-2c-4 -19 -8 -38 -12 -56c-7 -31 -14 -69 -21 -94l-81 -296h-94z" />
    <glyph glyph-name="x" unicode="x" horiz-adv-x="556" 
d="M20 0l202 281l-179 256h108l80 -123c8 -15 19 -32 28 -47l15 -27h2c5 9 11 18 16 27c9 15 19 34 28 47l83 123h101l-175 -247l207 -290h-108l-103 152c-11 15 -21 34 -32 51c-6 10 -12 20 -17 30h-2c-5 -10 -11 -20 -17 -30c-11 -17 -22 -36 -31 -51l-102 -152h-104z" />
    <glyph glyph-name="y" unicode="y" horiz-adv-x="519" 
d="M130 -187c-31 0 -64 4 -79 11v80h4c11 -7 33 -10 56 -10c37 0 61 14 80 65c0 1 22 63 19 68l-205 510h101l111 -298c11 -31 22 -66 31 -95c5 -17 9 -34 14 -50h2c5 16 10 33 15 50c9 29 20 64 31 95l107 298h97l-228 -586c-46 -113 -85 -138 -156 -138z" />
    <glyph glyph-name="z" unicode="z" horiz-adv-x="512" 
d="M44 0v72l240 313c11 15 27 32 40 47c7 9 15 17 24 26v3c-13 -1 -25 -1 -37 -2c-21 -1 -45 -1 -64 -1h-185v79h403v-58l-244 -319c-12 -15 -28 -34 -43 -50c-8 -9 -16 -19 -25 -28v-3c13 0 26 0 39 1c23 1 48 2 68 2h217v-82h-433z" />
    <glyph glyph-name="braceleft" unicode="{" horiz-adv-x="338" 
d="M315 -125h-31c-109 0 -169 44 -169 171v179c0 47 -22 68 -82 71v75c60 3 82 23 82 70v175c0 127 60 168 169 168h31v-74h-28c-55 0 -77 -20 -77 -95v-181c0 -55 -20 -88 -61 -99v-3c41 -13 61 -46 61 -99v-186c0 -74 22 -94 77 -94h28v-78z" />
    <glyph glyph-name="bar" unicode="|" horiz-adv-x="250" 
d="M87 -125v909h76v-909h-76z" />
    <glyph glyph-name="braceright" unicode="}" horiz-adv-x="338" 
d="M40 -125v78h18c53 0 77 17 77 91v186c0 56 18 84 61 99v3c-43 13 -61 43 -61 99v182c0 75 -22 97 -77 97h-18v74h20c109 0 169 -45 169 -170v-175c0 -47 16 -68 75 -71v-76c-56 -3 -75 -23 -75 -70v-178c0 -128 -60 -169 -169 -169h-20z" />
    <glyph glyph-name="asciitilde" unicode="~" horiz-adv-x="432" 
d="M291 280c-27 0 -51 10 -75 21c-35 15 -49 24 -68 24s-30 -15 -31 -44h-72c3 80 40 128 97 128c31 0 57 -11 81 -24c27 -15 40 -21 57 -21c23 0 35 14 36 43h71c-3 -75 -29 -127 -96 -127z" />
    <glyph glyph-name="Euro" unicode="&#x20ac;" horiz-adv-x="657" 
d="M31 395v57h66c29 168 134 277 277 277c135 0 224 -87 240 -206h-94c-16 77 -64 124 -147 124c-100 0 -157 -74 -176 -195h203v-57h-209c-1 -13 -1 -27 -1 -40c0 -15 0 -28 1 -41h209v-57h-202c21 -125 86 -190 183 -190c92 0 142 67 153 159h90
c-5 -133 -97 -241 -242 -241c-143 0 -256 99 -285 272h-66v57h59c-1 13 -1 26 -1 41c0 13 0 27 1 40h-59z" />
    <glyph glyph-name="quotesinglbase" unicode="&#x201a;" horiz-adv-x="203" 
d="M152 106v-114c0 -87 -49 -128 -102 -133v48c25 8 47 29 47 81v12h-45v106h100z" />
    <glyph glyph-name="florin" unicode="&#x192;" horiz-adv-x="396" 
d="M33 353v70h106l25 173c5 39 18 68 37 89c36 39 94 50 174 39v-76c-81 7 -112 -7 -120 -64l-23 -161h118v-70h-128l-54 -385c-6 -42 -19 -73 -40 -94c-31 -31 -78 -37 -143 -29v74c49 -4 81 3 89 56l55 378h-96z" />
    <glyph glyph-name="quotedblbase" unicode="&#x201e;" horiz-adv-x="373" 
d="M152 106v-114c0 -87 -49 -128 -102 -133v48c25 8 47 29 47 81v12h-45v106h100zM321 106v-114c0 -87 -47 -128 -101 -133v48c25 8 47 29 47 81v12h-46v106h100z" />
    <glyph glyph-name="ellipsis" unicode="&#x2026;" horiz-adv-x="708" 
d="M54 0v110h108v-110h-108zM300 0v110h109v-110h-109zM546 0v110h109v-110h-109z" />
    <glyph glyph-name="dagger" unicode="&#x2020;" horiz-adv-x="591" 
d="M44 466v82h204v196h95v-196h203v-82h-203v-578h-95v578h-204z" />
    <glyph glyph-name="daggerdbl" unicode="&#x2021;" horiz-adv-x="591" 
d="M44 466v82h204v196h95v-196h203v-82h-203v-301h203v-83h-203v-194h-95v194h-204v83h204v301h-204z" />
    <glyph glyph-name="circumflex" unicode="&#x2c6;" 
d="M103 629l97 123h103l94 -123h-94l-52 75h-2l-54 -75h-92z" />
    <glyph glyph-name="perthousand" unicode="&#x2030;" horiz-adv-x="1287" 
d="M203 0l406 712h73l-406 -712h-73zM207 316c-100 0 -170 81 -170 207c0 125 74 206 170 206c98 0 170 -78 170 -206c0 -126 -70 -207 -170 -207zM678 -15c-100 0 -170 81 -170 206c0 127 73 206 170 206c99 0 169 -77 169 -206c0 -125 -68 -206 -169 -206zM207 382
c60 0 88 58 88 141c0 79 -32 141 -88 141s-86 -60 -86 -141c0 -80 30 -141 86 -141zM678 51c59 0 87 57 87 140c0 80 -31 142 -87 142c-57 0 -86 -59 -86 -142c0 -80 29 -140 86 -140zM1080 -15c-100 0 -170 81 -170 206c0 127 74 206 170 206c98 0 170 -77 170 -206
c0 -125 -70 -206 -170 -206zM1080 51c60 0 88 57 88 140c0 80 -32 142 -88 142s-86 -59 -86 -142c0 -80 30 -140 86 -140z" />
    <glyph glyph-name="Scaron" unicode="&#x160;" horiz-adv-x="672" 
d="M350 -15c-208 0 -311 114 -319 256h101c12 -113 85 -174 221 -174c99 0 171 44 171 134c0 97 -86 120 -216 149c-133 27 -246 67 -246 209c0 125 106 199 258 199c184 0 264 -92 283 -219h-99c-13 91 -78 139 -183 139c-99 0 -162 -39 -162 -114c0 -81 81 -103 193 -127
c144 -29 275 -66 275 -232c0 -141 -116 -220 -277 -220zM472 898l-101 -113h-103l-98 113h96l54 -61h2l56 61h94z" />
    <glyph glyph-name="guilsinglleft" unicode="&#x2039;" horiz-adv-x="322" 
d="M243 81l-164 150v98l164 151v-101l-113 -97v-2l113 -99v-100z" />
    <glyph glyph-name="OE" unicode="&#x152;" horiz-adv-x="1132" 
d="M390 -16c-202 0 -341 167 -341 388c0 223 144 388 341 388c85 0 146 -33 189 -93v77h493v-90h-394v-225h352v-85h-352v-250h406v-94h-505v72c-41 -56 -102 -88 -189 -88zM393 72c94 0 185 57 185 148v291c0 98 -91 161 -185 161c-152 0 -240 -129 -240 -300
c0 -170 87 -300 240 -300z" />
    <glyph glyph-name="quoteleft" unicode="&#x2018;" horiz-adv-x="203" 
d="M52 499v115c0 87 46 126 101 133v-49c-25 -8 -47 -29 -47 -81v-11h46v-107h-100z" />
    <glyph glyph-name="quoteright" unicode="&#x2019;" horiz-adv-x="203" 
d="M152 744v-114c0 -87 -49 -129 -102 -134v49c25 8 47 29 47 81v12h-45v106h100z" />
    <glyph glyph-name="quotedblleft" unicode="&#x201c;" horiz-adv-x="373" 
d="M221 499v115c0 87 46 126 101 133v-49c-24 -8 -47 -29 -47 -81v-11h46v-107h-100zM52 499v115c0 87 46 126 101 133v-49c-25 -8 -47 -29 -47 -81v-11h46v-107h-100z" />
    <glyph glyph-name="quotedblright" unicode="&#x201d;" horiz-adv-x="373" 
d="M152 744v-114c0 -87 -49 -129 -102 -134v49c25 8 47 29 47 81v12h-45v106h100zM321 744v-114c0 -88 -46 -127 -101 -134v49c25 8 47 29 47 81v12h-46v106h100z" />
    <glyph glyph-name="bullet" unicode="&#x2022;" horiz-adv-x="342" 
d="M172 211c-71 0 -128 57 -128 126c0 70 57 128 128 128c69 0 126 -58 126 -128c0 -69 -57 -126 -126 -126z" />
    <glyph glyph-name="endash" unicode="&#x2013;" 
d="M0 225v80h500v-80h-500z" />
    <glyph glyph-name="emdash" unicode="&#x2014;" horiz-adv-x="1000" 
d="M200 225v80h600v-80h-600z" />
    <glyph glyph-name="tilde" unicode="&#x2dc;" 
d="M315 631c-52 0 -95 39 -123 39c-16 0 -26 -18 -29 -38h-64c3 69 33 107 84 107c56 0 86 -39 123 -39c20 0 25 18 28 37h64c-3 -67 -27 -106 -83 -106z" />
    <glyph glyph-name="trademark" unicode="&#x2122;" horiz-adv-x="868" 
d="M422 362v382h104l50 -164c7 -25 17 -61 24 -92c4 -18 8 -36 13 -55h2c5 19 9 37 13 55c7 31 16 67 24 92l50 164h106v-382h-68v140c0 35 1 77 2 112c1 21 1 41 2 62h-3c-5 -19 -10 -37 -15 -56c-9 -33 -20 -73 -32 -112l-46 -146h-69l-45 146c-12 39 -24 81 -32 113
c-5 19 -10 37 -14 55h-3c1 -21 1 -41 2 -62c1 -35 2 -77 2 -112v-140h-67zM39 681v63h313v-63h-119v-319h-74v319h-120z" />
    <glyph glyph-name="scaron" unicode="&#x161;" horiz-adv-x="522" 
d="M270 -16c-149 0 -232 70 -240 179h94c11 -77 72 -104 148 -104c85 0 121 37 121 85c0 59 -45 74 -140 93c-105 22 -200 44 -200 162c0 92 72 150 197 150c135 0 202 -63 214 -156h-93c-8 56 -46 86 -123 86c-73 0 -104 -34 -104 -75c0 -57 52 -66 143 -85
c107 -21 199 -45 199 -170c0 -109 -90 -165 -216 -165zM402 749l-97 -124h-103l-94 124h94l52 -76h2l54 76h92z" />
    <glyph glyph-name="guilsinglright" unicode="&#x203a;" horiz-adv-x="322" 
d="M79 480l164 -151v-98l-164 -150v100l113 98v2l-113 99v100z" />
    <glyph glyph-name="oe" unicode="&#x153;" horiz-adv-x="965" 
d="M698 -15c-100 0 -168 50 -207 126c-39 -76 -108 -126 -205 -126c-155 0 -251 126 -251 283c0 156 96 282 251 282c99 0 166 -51 205 -127c39 76 109 127 202 127c76 0 135 -30 175 -83c41 -53 62 -129 62 -221h-393c8 -105 62 -185 162 -185c72 0 111 35 130 92h90
c-23 -100 -102 -168 -221 -168zM286 61c105 0 160 91 160 207s-55 208 -160 208s-156 -92 -156 -208s51 -207 156 -207zM693 478c-92 0 -143 -70 -154 -165h293c-5 104 -51 165 -139 165z" />
    <glyph glyph-name="Ydieresis" unicode="&#x178;" horiz-adv-x="678" 
d="M286 0v312l-268 432h114l134 -224c15 -27 33 -61 48 -89l25 -50h2c8 17 16 33 25 50c15 28 33 62 49 89l135 224h109l-271 -437v-307h-102zM193 785v108h94v-108h-94zM395 785v108h94v-108h-94z" />
    <glyph glyph-name="uni00A0" unicode="&#xa0;" horiz-adv-x="245" 
 />
    <glyph glyph-name="exclamdown" unicode="&#xa1;" horiz-adv-x="264" 
d="M158 396l25 -295v-233h-101v233l25 295h51zM187 612v-110h-109v110h109z" />
    <glyph glyph-name="cent" unicode="&#xa2;" horiz-adv-x="561" 
d="M265 -119v106c-143 16 -230 134 -230 281c0 144 89 265 230 281v86h59v-85c115 -11 187 -81 206 -188h-93c-12 61 -50 103 -113 112v-411c68 9 108 55 115 127h91c-11 -121 -85 -193 -206 -204v-105h-59zM129 268c0 -104 45 -189 136 -205v410
c-91 -16 -136 -101 -136 -205z" />
    <glyph glyph-name="sterling" unicode="&#xa3;" horiz-adv-x="595" 
d="M49 312v70h62c-19 44 -34 89 -34 142c0 117 91 204 240 204c63 0 121 -16 164 -55c44 -39 73 -96 74 -179h-95c-3 110 -63 154 -145 154c-89 0 -138 -47 -138 -126c0 -47 18 -92 35 -140h147v-70h-127c3 -19 6 -37 6 -57c0 -71 -32 -114 -95 -165l2 -3c39 20 59 26 95 26
c75 0 113 -41 173 -41c43 0 77 22 108 49l52 -69c-43 -37 -95 -64 -162 -64c-96 0 -133 54 -214 54c-41 0 -74 -24 -103 -45l-54 75c60 43 109 86 109 167c0 25 -5 49 -12 73h-88z" />
    <glyph glyph-name="currency" unicode="&#xa4;" horiz-adv-x="506" 
d="M253 222c76 0 119 60 119 143c0 81 -43 144 -119 144s-120 -63 -120 -144c0 -82 44 -143 120 -143zM64 125l-45 43l69 71c-25 37 -38 79 -38 126s13 89 38 124l-69 71l45 43l67 -69c32 24 73 40 122 40c48 0 90 -16 122 -40l67 69l45 -43l-69 -71c25 -36 37 -77 37 -124
s-14 -90 -38 -125l70 -72l-45 -43l-68 69c-33 -25 -73 -37 -121 -37s-88 12 -121 37z" />
    <glyph glyph-name="yen" unicode="&#xa5;" horiz-adv-x="611" 
d="M76 281v57h170l-225 374h108l88 -159c19 -33 41 -78 60 -115c11 -22 21 -44 32 -67h2c11 23 21 45 32 67c19 37 41 82 60 115l88 159h104l-223 -374h172v-57h-186v-81h186v-57h-186v-143h-96v143h-186v57h186v81h-186z" />
    <glyph glyph-name="brokenbar" unicode="&#xa6;" horiz-adv-x="250" 
d="M87 375v409h76v-409h-76zM87 -125v426h76v-426h-76z" />
    <glyph glyph-name="section" unicode="&#xa7;" horiz-adv-x="628" 
d="M319 -192c-141 0 -225 89 -228 194h93c5 -67 48 -115 136 -115c71 0 104 32 104 75c0 57 -63 86 -186 155c-124 69 -200 117 -200 214c0 76 48 119 123 139c-31 31 -47 62 -47 103c0 96 79 157 200 157c132 0 203 -76 211 -180h-93c-7 60 -43 100 -119 100
c-72 0 -105 -31 -105 -74c0 -53 57 -82 161 -135c119 -64 221 -115 221 -225c0 -80 -47 -126 -122 -147c31 -31 51 -63 51 -106c0 -93 -75 -155 -200 -155zM326 360c-44 24 -85 46 -117 69c-53 -13 -80 -49 -80 -88c0 -55 37 -80 149 -144c47 -27 98 -53 139 -84
c60 17 81 54 81 97c0 60 -52 86 -172 150z" />
    <glyph glyph-name="dieresis" unicode="&#xa8;" 
d="M303 636v108h92v-108h-92zM105 636v108h92v-108h-92z" />
    <glyph glyph-name="copyright" unicode="&#xa9;" horiz-adv-x="863" 
d="M431 -18c-213 0 -380 165 -380 387c0 223 167 388 380 388c214 0 382 -165 382 -388c0 -222 -168 -387 -382 -387zM431 24c190 0 332 147 332 345c0 200 -142 347 -332 347c-188 0 -332 -147 -332 -347c0 -198 144 -345 332 -345zM436 143c-123 0 -209 95 -209 226
s82 230 209 230c52 0 94 -14 125 -41c32 -27 50 -62 57 -105h-86c-7 41 -39 74 -96 74c-81 0 -121 -70 -121 -158c0 -91 46 -152 122 -152c61 0 95 39 100 86h83c-1 -41 -19 -85 -50 -112c-32 -31 -73 -48 -134 -48z" />
    <glyph glyph-name="ordfeminine" unicode="&#xaa;" horiz-adv-x="520" 
d="M465 246h-87c-8 9 -13 26 -14 65h-2c-27 -39 -69 -74 -148 -74c-91 0 -165 46 -165 135c0 110 89 138 208 149c72 7 109 19 109 68c0 51 -32 76 -96 76c-75 0 -108 -32 -115 -88h-84c5 83 71 152 197 152c52 0 96 -9 127 -32c33 -24 53 -63 53 -120v-262
c0 -35 8 -57 17 -64v-5zM232 301c93 0 135 65 135 119v71c-23 -13 -65 -23 -104 -28c-79 -11 -123 -28 -123 -88c0 -59 45 -74 92 -74z" />
    <glyph glyph-name="guillemotleft" unicode="&#xab;" horiz-adv-x="515" 
d="M436 82l-149 150v97l149 150v-100l-99 -97v-2l99 -98v-100zM229 82l-150 150v97l150 150v-100l-100 -97v-2l100 -98v-100z" />
    <glyph glyph-name="logicalnot" unicode="&#xac;" horiz-adv-x="568" 
d="M63 362v73h425v-260h-77v187h-348z" />
    <glyph glyph-name="uni00AD" unicode="&#xad;" horiz-adv-x="374" 
d="M48 243v84h278v-84h-278z" />
    <glyph glyph-name="registered" unicode="&#xae;" horiz-adv-x="655" 
d="M328 172c-160 0 -288 124 -288 292c0 169 128 293 288 293s287 -124 287 -293c0 -168 -127 -292 -287 -292zM328 211c140 0 243 106 243 253c0 148 -103 255 -243 255c-139 0 -242 -107 -242 -255c0 -147 103 -253 242 -253zM214 310v313h145c57 0 100 -35 100 -88
c0 -36 -19 -64 -63 -75v-1c36 -9 48 -26 52 -65c5 -43 4 -75 15 -79v-5h-60c-9 4 -10 37 -13 73c-2 35 -22 53 -59 53h-56v-126h-61zM275 572v-89h70c35 0 53 18 53 45s-17 44 -52 44h-71z" />
    <glyph glyph-name="macron" unicode="&#xaf;" 
d="M114 659v75h273v-75h-273z" />
    <glyph glyph-name="degree" unicode="&#xb0;" horiz-adv-x="382" 
d="M191 430c-84 0 -152 66 -152 149s68 150 152 150c85 0 153 -67 153 -150s-68 -149 -153 -149zM191 485c53 0 86 39 86 94c0 53 -33 94 -86 94c-51 0 -86 -41 -86 -94c0 -55 35 -94 86 -94z" />
    <glyph glyph-name="plusminus" unicode="&#xb1;" horiz-adv-x="601" 
d="M63 333v73h199v176h77v-176h199v-73h-199v-177h-77v177h-199zM63 0v73h475v-73h-475z" />
    <glyph glyph-name="twosuperior" unicode="&#xb2;" horiz-adv-x="394" 
d="M361 286h-333c3 102 75 157 138 199c58 40 114 65 114 124c0 48 -31 78 -80 78c-53 0 -84 -38 -85 -95h-77c0 99 64 162 167 162c96 0 157 -65 157 -144c0 -89 -61 -122 -125 -162c-41 -24 -98 -56 -111 -96h235v-66z" />
    <glyph glyph-name="threesuperior" unicode="&#xb3;" horiz-adv-x="403" 
d="M203 277c-113 0 -182 62 -183 158h75c3 -57 36 -95 105 -95c56 0 93 27 93 83c0 49 -35 76 -99 76h-29v61h28c56 0 87 24 87 67s-32 68 -79 68c-59 0 -88 -36 -91 -87h-76c3 85 63 147 168 147c91 0 155 -47 155 -126c0 -51 -30 -80 -81 -95v-2c65 -15 98 -53 98 -115
c0 -92 -78 -140 -171 -140z" />
    <glyph glyph-name="acute" unicode="&#xb4;" 
d="M204 625l53 145h114l-89 -145h-78z" />
    <glyph glyph-name="mu" unicode="&#xb5;" horiz-adv-x="568" 
d="M158 22h-3c0 -7 0 -16 1 -26c1 -17 2 -42 2 -73v-105h-93v719h93v-365c0 -68 42 -108 117 -108c83 0 135 62 135 146v327h93v-537h-92v75h-2c-39 -53 -85 -87 -153 -87c-47 0 -75 9 -98 34z" />
    <glyph glyph-name="paragraph" unicode="&#xb6;" horiz-adv-x="571" 
d="M276 365h-29c-137 0 -208 72 -208 191c0 56 20 102 53 137s84 51 151 51h251v-884h-68v800h-82v-800h-68v505z" />
    <glyph glyph-name="periodcentered" unicode="&#xb7;" horiz-adv-x="234" 
d="M63 271v110h108v-110h-108z" />
    <glyph glyph-name="cedilla" unicode="&#xb8;" 
d="M227 -208c-51 0 -86 14 -111 31l16 31c23 -11 48 -16 75 -16c35 0 63 8 63 35c0 24 -18 33 -42 33c-19 0 -31 -3 -43 -7l-16 25l73 76h59l-64 -56v-2c40 5 103 -8 103 -69c0 -53 -46 -81 -113 -81z" />
    <glyph glyph-name="onesuperior" unicode="&#xb9;" horiz-adv-x="283" 
d="M141 286v323h-111v53c63 1 114 23 122 86h69v-462h-80z" />
    <glyph glyph-name="ordmasculine" unicode="&#xba;" horiz-adv-x="548" 
d="M275 232c-143 0 -231 110 -231 248s88 249 231 249c144 0 229 -111 229 -249s-85 -248 -229 -248zM275 301c93 0 139 77 139 179c0 101 -46 180 -139 180c-94 0 -140 -79 -140 -180c0 -102 46 -179 140 -179z" />
    <glyph glyph-name="guillemotright" unicode="&#xbb;" horiz-adv-x="515" 
d="M79 479l150 -150v-97l-150 -150v100l100 97v2l-100 98v100zM287 479l149 -150v-97l-149 -150v100l99 97v2l-99 98v100z" />
    <glyph glyph-name="onequarter" unicode="&#xbc;" horiz-adv-x="835" 
d="M664 -110v105h-226v79l227 280h76v-298h73v-61h-73v-105h-77zM33 -130l649 874h86l-650 -874h-85zM144 286v323h-111v53c63 1 114 23 122 86h69v-462h-80zM493 54v-2c9 1 17 1 25 2c15 1 31 2 46 2h100v128c0 16 0 37 3 54c1 10 3 20 4 30h-3l-18 -27
c-11 -15 -24 -34 -35 -47l-67 -80c-11 -13 -24 -27 -35 -39c-7 -7 -13 -14 -20 -21z" />
    <glyph glyph-name="onehalf" unicode="&#xbd;" horiz-adv-x="892" 
d="M144 286v323h-111v53c63 1 114 23 122 86h69v-462h-80zM34 -130l649 874h86l-650 -874h-85zM856 -110h-333c3 102 75 157 138 199c58 40 114 65 114 124c0 48 -31 78 -80 78c-53 0 -84 -38 -85 -95h-77c0 99 64 162 167 162c96 0 157 -65 157 -144
c0 -89 -61 -122 -125 -162c-41 -24 -98 -56 -111 -96h235v-66z" />
    <glyph glyph-name="threequarters" unicode="&#xbe;" horiz-adv-x="923" 
d="M752 -110v105h-226v79l227 280h76v-298h73v-61h-73v-105h-77zM206 277c-113 0 -182 62 -183 158h75c3 -57 36 -95 105 -95c56 0 93 27 93 83c0 49 -35 76 -99 76h-29v61h28c56 0 87 24 87 67s-32 68 -79 68c-59 0 -88 -36 -91 -87h-76c3 85 63 147 168 147
c91 0 155 -47 155 -126c0 -51 -30 -80 -81 -95v-2c65 -15 98 -53 98 -115c0 -92 -78 -140 -171 -140zM122 -130l649 874h86l-650 -874h-85zM581 54v-2c9 1 17 1 25 2c15 1 31 2 46 2h100v128c0 16 0 37 3 54c1 10 3 20 4 30h-3l-18 -27c-11 -15 -24 -34 -35 -47l-67 -80
c-11 -13 -24 -27 -35 -39c-7 -7 -13 -14 -20 -21z" />
    <glyph glyph-name="questiondown" unicode="&#xbf;" horiz-adv-x="547" 
d="M343 612v-110h-109v110h109zM245 396h86c0 -101 -32 -144 -106 -210c-46 -40 -88 -73 -88 -137s47 -112 131 -112c104 0 154 68 159 159h93c-3 -121 -81 -241 -253 -241c-142 0 -228 84 -228 192c0 82 44 128 93 169c44 36 71 60 88 84c19 25 24 52 25 96z" />
    <glyph glyph-name="Agrave" unicode="&#xc0;" horiz-adv-x="698" 
d="M19 0l272 744h114l274 -744h-112l-74 217h-293l-76 -217h-105zM301 505l-73 -208h238l-71 208c-13 36 -24 75 -32 106c-5 17 -9 35 -13 52h-3c-5 -17 -9 -35 -14 -53c-9 -31 -20 -70 -32 -105zM311 785l-89 125h114l53 -125h-78z" />
    <glyph glyph-name="Aacute" unicode="&#xc1;" horiz-adv-x="698" 
d="M19 0l272 744h114l274 -744h-112l-74 217h-293l-76 -217h-105zM301 505l-73 -208h238l-71 208c-13 36 -24 75 -32 106c-5 17 -9 35 -13 52h-3c-5 -17 -9 -35 -14 -53c-9 -31 -20 -70 -32 -105zM306 785l53 125h114l-89 -125h-78z" />
    <glyph glyph-name="Acircumflex" unicode="&#xc2;" horiz-adv-x="698" 
d="M19 0l272 744h114l274 -744h-112l-74 217h-293l-76 -217h-105zM301 505l-73 -208h238l-71 208c-13 36 -24 75 -32 106c-5 17 -9 35 -13 52h-3c-5 -17 -9 -35 -14 -53c-9 -31 -20 -70 -32 -105zM198 785l101 113h103l98 -113h-96l-54 61h-2l-56 -61h-94z" />
    <glyph glyph-name="Atilde" unicode="&#xc3;" horiz-adv-x="698" 
d="M19 0l272 744h114l274 -744h-112l-74 217h-293l-76 -217h-105zM301 505l-73 -208h238l-71 208c-13 36 -24 75 -32 106c-5 17 -9 35 -13 52h-3c-5 -17 -9 -35 -14 -53c-9 -31 -20 -70 -32 -105zM416 786c-52 0 -95 39 -123 39c-16 0 -26 -18 -29 -38h-64
c3 69 33 107 84 107c56 0 86 -39 123 -39c20 0 25 18 28 37h64c-3 -67 -27 -106 -83 -106z" />
    <glyph glyph-name="Adieresis" unicode="&#xc4;" horiz-adv-x="698" 
d="M19 0l272 744h114l274 -744h-112l-74 217h-293l-76 -217h-105zM301 505l-73 -208h238l-71 208c-13 36 -24 75 -32 106c-5 17 -9 35 -13 52h-3c-5 -17 -9 -35 -14 -53c-9 -31 -20 -70 -32 -105zM403 785v108h94v-108h-94zM201 785v108h94v-108h-94z" />
    <glyph glyph-name="Aring" unicode="&#xc5;" horiz-adv-x="698" 
d="M19 0l272 744h114l274 -744h-112l-74 217h-293l-76 -217h-105zM301 505l-73 -208h238l-71 208c-13 36 -24 75 -32 106c-5 17 -9 35 -13 52h-3c-5 -17 -9 -35 -14 -53c-9 -31 -20 -70 -32 -105zM350 778c-57 0 -103 45 -103 101s46 99 103 99c56 0 102 -43 102 -99
s-46 -101 -102 -101zM350 820c32 0 55 24 55 59c0 33 -23 58 -55 58c-33 0 -56 -25 -56 -58c0 -35 23 -59 56 -59z" />
    <glyph glyph-name="AE" unicode="&#xc6;" horiz-adv-x="1010" 
d="M949 744v-90h-383v-225h342v-85h-342v-250h395v-94h-498v217h-260l-76 -217h-103l269 744h656zM358 654l-126 -355h231v355h-105z" />
    <glyph glyph-name="Ccedilla" unicode="&#xc7;" horiz-adv-x="756" 
d="M359 -208c-51 0 -86 14 -111 31l16 31c23 -11 48 -16 75 -16c35 0 63 8 63 35c0 24 -18 33 -42 33c-19 0 -31 -3 -43 -7l-16 25l60 63c-191 19 -312 174 -312 385c0 219 132 388 353 388c88 0 156 -25 207 -66c53 -43 84 -103 95 -175h-102c-17 92 -87 152 -202 152
c-157 0 -247 -127 -247 -299c0 -179 98 -298 248 -298c134 0 201 91 209 197h102c0 -73 -36 -157 -89 -207c-49 -49 -118 -76 -207 -79l-47 -41v-2c40 5 103 -8 103 -69c0 -53 -46 -81 -113 -81z" />
    <glyph glyph-name="Egrave" unicode="&#xc8;" horiz-adv-x="666" 
d="M77 0v744h529v-90h-427v-225h386v-85h-386v-251h438v-93h-540zM315 785l-89 125h114l53 -125h-78z" />
    <glyph glyph-name="Eacute" unicode="&#xc9;" horiz-adv-x="666" 
d="M77 0v744h529v-90h-427v-225h386v-85h-386v-251h438v-93h-540zM310 785l53 125h114l-89 -125h-78z" />
    <glyph glyph-name="Ecircumflex" unicode="&#xca;" horiz-adv-x="666" 
d="M77 0v744h529v-90h-427v-225h386v-85h-386v-251h438v-93h-540zM202 785l101 113h103l98 -113h-96l-54 61h-2l-56 -61h-94z" />
    <glyph glyph-name="Edieresis" unicode="&#xcb;" horiz-adv-x="666" 
d="M77 0v744h529v-90h-427v-225h386v-85h-386v-251h438v-93h-540zM205 785v108h94v-108h-94zM407 785v108h94v-108h-94z" />
    <glyph glyph-name="Igrave" unicode="&#xcc;" horiz-adv-x="260" 
d="M79 0v744h102v-744h-102zM92 785l-89 125h114l53 -125h-78z" />
    <glyph glyph-name="Iacute" unicode="&#xcd;" horiz-adv-x="260" 
d="M79 0v744h102v-744h-102zM87 785l53 125h114l-89 -125h-78z" />
    <glyph glyph-name="Icircumflex" unicode="&#xce;" horiz-adv-x="260" 
d="M79 0v744h102v-744h-102zM-21 785l101 113h103l98 -113h-96l-54 61h-2l-56 -61h-94z" />
    <glyph glyph-name="Idieresis" unicode="&#xcf;" horiz-adv-x="260" 
d="M79 0v744h102v-744h-102zM174 785v108h94v-108h-94zM-8 785v108h94v-108h-94z" />
    <glyph glyph-name="Eth" unicode="&#xd0;" horiz-adv-x="742" 
d="M13 331v86h74v327h275c223 0 332 -151 332 -375c0 -221 -115 -369 -339 -369h-268v331h-74zM190 89h161c168 0 238 108 238 280s-63 286 -232 286h-167v-238h210v-86h-210v-242z" />
    <glyph glyph-name="Ntilde" unicode="&#xd1;" horiz-adv-x="741" 
d="M77 0v744h107l305 -466c19 -28 39 -64 55 -95c9 -17 19 -35 28 -53h3c-1 19 -3 37 -4 56c-3 32 -3 72 -3 103v455h96v-744h-106l-304 466c-19 28 -39 63 -56 94c-10 17 -20 35 -29 53h-2c1 -19 2 -37 3 -56c1 -32 3 -70 3 -101v-456h-96zM445 786c-52 0 -95 39 -123 39
c-16 0 -26 -18 -29 -38h-64c3 69 33 107 84 107c56 0 86 -39 123 -39c20 0 25 18 28 37h64c-3 -67 -27 -106 -83 -106z" />
    <glyph glyph-name="Ograve" unicode="&#xd2;" horiz-adv-x="826" 
d="M413 -16c-225 0 -364 167 -364 388c0 223 139 388 364 388c224 0 365 -165 365 -388c0 -221 -141 -388 -365 -388zM413 74c169 0 259 127 259 298s-90 300 -259 300c-168 0 -260 -129 -260 -300s92 -298 260 -298zM375 785l-89 125h114l53 -125h-78z" />
    <glyph glyph-name="Oacute" unicode="&#xd3;" horiz-adv-x="826" 
d="M413 -16c-225 0 -364 167 -364 388c0 223 139 388 364 388c224 0 365 -165 365 -388c0 -221 -141 -388 -365 -388zM413 74c169 0 259 127 259 298s-90 300 -259 300c-168 0 -260 -129 -260 -300s92 -298 260 -298zM370 785l53 125h114l-89 -125h-78z" />
    <glyph glyph-name="Ocircumflex" unicode="&#xd4;" horiz-adv-x="826" 
d="M413 -16c-225 0 -364 167 -364 388c0 223 139 388 364 388c224 0 365 -165 365 -388c0 -221 -141 -388 -365 -388zM413 74c169 0 259 127 259 298s-90 300 -259 300c-168 0 -260 -129 -260 -300s92 -298 260 -298zM262 785l101 113h103l98 -113h-96l-54 61h-2l-56 -61
h-94z" />
    <glyph glyph-name="Otilde" unicode="&#xd5;" horiz-adv-x="826" 
d="M413 -16c-225 0 -364 167 -364 388c0 223 139 388 364 388c224 0 365 -165 365 -388c0 -221 -141 -388 -365 -388zM413 74c169 0 259 127 259 298s-90 300 -259 300c-168 0 -260 -129 -260 -300s92 -298 260 -298zM480 786c-52 0 -95 39 -123 39c-16 0 -26 -18 -29 -38
h-64c3 69 33 107 84 107c56 0 86 -39 123 -39c20 0 25 18 28 37h64c-3 -67 -27 -106 -83 -106z" />
    <glyph glyph-name="Odieresis" unicode="&#xd6;" horiz-adv-x="826" 
d="M413 -16c-225 0 -364 167 -364 388c0 223 139 388 364 388c224 0 365 -165 365 -388c0 -221 -141 -388 -365 -388zM413 74c169 0 259 127 259 298s-90 300 -259 300c-168 0 -260 -129 -260 -300s92 -298 260 -298zM467 785v108h94v-108h-94zM265 785v108h94v-108h-94z
" />
    <glyph glyph-name="multiply" unicode="&#xd7;" horiz-adv-x="601" 
d="M132 118l-51 49l169 171l-169 172l51 50l169 -170l168 170l52 -50l-170 -171l170 -171l-52 -50l-169 170z" />
    <glyph glyph-name="Oslash" unicode="&#xd8;" horiz-adv-x="826" 
d="M70 -38l-42 39l104 111c-55 68 -83 157 -83 260c0 223 139 388 364 388c100 0 182 -32 243 -88l91 97l42 -37l-94 -101c53 -68 83 -156 83 -259c0 -221 -141 -388 -365 -388c-100 0 -181 31 -242 86zM153 372c0 -72 16 -136 47 -187l391 417c-43 44 -102 70 -178 70
c-168 0 -260 -129 -260 -300zM413 74c169 0 259 127 259 298c0 72 -15 134 -46 185l-389 -417c43 -41 100 -66 176 -66z" />
    <glyph glyph-name="Ugrave" unicode="&#xd9;" horiz-adv-x="704" 
d="M352 -11c-167 0 -287 74 -287 253v502h102v-493c0 -123 67 -175 187 -175c116 0 183 52 183 175v493h102v-502c0 -179 -124 -253 -287 -253zM314 785l-89 125h114l53 -125h-78z" />
    <glyph glyph-name="Uacute" unicode="&#xda;" horiz-adv-x="704" 
d="M352 -11c-167 0 -287 74 -287 253v502h102v-493c0 -123 67 -175 187 -175c116 0 183 52 183 175v493h102v-502c0 -179 -124 -253 -287 -253zM309 785l53 125h114l-89 -125h-78z" />
    <glyph glyph-name="Ucircumflex" unicode="&#xdb;" horiz-adv-x="704" 
d="M352 -11c-167 0 -287 74 -287 253v502h102v-493c0 -123 67 -175 187 -175c116 0 183 52 183 175v493h102v-502c0 -179 -124 -253 -287 -253zM201 785l101 113h103l98 -113h-96l-54 61h-2l-56 -61h-94z" />
    <glyph glyph-name="Udieresis" unicode="&#xdc;" horiz-adv-x="704" 
d="M352 -11c-167 0 -287 74 -287 253v502h102v-493c0 -123 67 -175 187 -175c116 0 183 52 183 175v493h102v-502c0 -179 -124 -253 -287 -253zM406 785v108h94v-108h-94zM204 785v108h94v-108h-94z" />
    <glyph glyph-name="Yacute" unicode="&#xdd;" horiz-adv-x="678" 
d="M286 0v312l-268 432h114l134 -224c15 -27 33 -61 48 -89l25 -50h2c8 17 16 33 25 50c15 28 33 62 49 89l135 224h109l-271 -437v-307h-102zM298 785l53 125h114l-89 -125h-78z" />
    <glyph glyph-name="Thorn" unicode="&#xde;" horiz-adv-x="647" 
d="M77 0v744h103v-129h210c80 0 139 -25 178 -72c33 -39 53 -87 53 -146c0 -137 -80 -221 -241 -221h-200v-176h-103zM374 525h-194v-266h190c101 0 149 51 149 134c0 88 -53 132 -145 132z" />
    <glyph glyph-name="germandbls" unicode="&#xdf;" horiz-adv-x="549" 
d="M282 -11c-17 0 -38 2 -55 6v73h2c109 -21 191 39 191 153c0 100 -55 159 -158 159h-28v67h29c76 0 128 49 128 122c0 65 -42 109 -115 109c-77 0 -119 -48 -119 -120v-558h-93v563c0 112 81 190 215 190c115 0 203 -72 203 -180c0 -76 -41 -127 -122 -152v-2
c93 -23 154 -87 154 -196c0 -144 -88 -234 -232 -234z" />
    <glyph glyph-name="agrave" unicode="&#xe0;" horiz-adv-x="562" 
d="M224 -11c-102 0 -182 50 -182 153c0 125 92 153 231 169c80 8 130 23 130 77c0 59 -40 94 -115 94c-85 0 -126 -40 -129 -104h-90c3 91 74 172 218 172c51 0 95 -9 130 -29c45 -27 72 -74 72 -146v-251c0 -43 10 -67 57 -56h4v-65c-13 -4 -27 -8 -50 -8
c-57 0 -84 27 -95 84h-1c-34 -47 -90 -90 -180 -90zM247 57c107 0 157 80 157 141v88c-27 -17 -74 -30 -118 -38c-88 -16 -146 -30 -146 -105c0 -69 53 -86 107 -86zM248 625l-89 145h114l53 -145h-78z" />
    <glyph glyph-name="aacute" unicode="&#xe1;" horiz-adv-x="562" 
d="M224 -11c-102 0 -182 50 -182 153c0 125 92 153 231 169c80 8 130 23 130 77c0 59 -40 94 -115 94c-85 0 -126 -40 -129 -104h-90c3 91 74 172 218 172c51 0 95 -9 130 -29c45 -27 72 -74 72 -146v-251c0 -43 10 -67 57 -56h4v-65c-13 -4 -27 -8 -50 -8
c-57 0 -84 27 -95 84h-1c-34 -47 -90 -90 -180 -90zM247 57c107 0 157 80 157 141v88c-27 -17 -74 -30 -118 -38c-88 -16 -146 -30 -146 -105c0 -69 53 -86 107 -86zM239 625l53 145h114l-89 -145h-78z" />
    <glyph glyph-name="acircumflex" unicode="&#xe2;" horiz-adv-x="562" 
d="M224 -11c-102 0 -182 50 -182 153c0 125 92 153 231 169c80 8 130 23 130 77c0 59 -40 94 -115 94c-85 0 -126 -40 -129 -104h-90c3 91 74 172 218 172c51 0 95 -9 130 -29c45 -27 72 -74 72 -146v-251c0 -43 10 -67 57 -56h4v-65c-13 -4 -27 -8 -50 -8
c-57 0 -84 27 -95 84h-1c-34 -47 -90 -90 -180 -90zM247 57c107 0 157 80 157 141v88c-27 -17 -74 -30 -118 -38c-88 -16 -146 -30 -146 -105c0 -69 53 -86 107 -86zM135 629l97 123h103l94 -123h-94l-52 75h-2l-54 -75h-92z" />
    <glyph glyph-name="atilde" unicode="&#xe3;" horiz-adv-x="562" 
d="M224 -11c-102 0 -182 50 -182 153c0 125 92 153 231 169c80 8 130 23 130 77c0 59 -40 94 -115 94c-85 0 -126 -40 -129 -104h-90c3 91 74 172 218 172c51 0 95 -9 130 -29c45 -27 72 -74 72 -146v-251c0 -43 10 -67 57 -56h4v-65c-13 -4 -27 -8 -50 -8
c-57 0 -84 27 -95 84h-1c-34 -47 -90 -90 -180 -90zM247 57c107 0 157 80 157 141v88c-27 -17 -74 -30 -118 -38c-88 -16 -146 -30 -146 -105c0 -69 53 -86 107 -86zM349 631c-52 0 -95 39 -123 39c-16 0 -26 -18 -29 -38h-64c3 69 33 107 84 107c56 0 86 -39 123 -39
c20 0 25 18 28 37h64c-3 -67 -27 -106 -83 -106z" />
    <glyph glyph-name="adieresis" unicode="&#xe4;" horiz-adv-x="562" 
d="M224 -11c-102 0 -182 50 -182 153c0 125 92 153 231 169c80 8 130 23 130 77c0 59 -40 94 -115 94c-85 0 -126 -40 -129 -104h-90c3 91 74 172 218 172c51 0 95 -9 130 -29c45 -27 72 -74 72 -146v-251c0 -43 10 -67 57 -56h4v-65c-13 -4 -27 -8 -50 -8
c-57 0 -84 27 -95 84h-1c-34 -47 -90 -90 -180 -90zM247 57c107 0 157 80 157 141v88c-27 -17 -74 -30 -118 -38c-88 -16 -146 -30 -146 -105c0 -69 53 -86 107 -86zM335 636v108h92v-108h-92zM137 636v108h92v-108h-92z" />
    <glyph glyph-name="aring" unicode="&#xe5;" horiz-adv-x="562" 
d="M224 -11c-102 0 -182 50 -182 153c0 125 92 153 231 169c80 8 130 23 130 77c0 59 -40 94 -115 94c-85 0 -126 -40 -129 -104h-90c3 91 74 172 218 172c51 0 95 -9 130 -29c45 -27 72 -74 72 -146v-251c0 -43 10 -67 57 -56h4v-65c-13 -4 -27 -8 -50 -8
c-57 0 -84 27 -95 84h-1c-34 -47 -90 -90 -180 -90zM247 57c107 0 157 80 157 141v88c-27 -17 -74 -30 -118 -38c-88 -16 -146 -30 -146 -105c0 -69 53 -86 107 -86zM283 599c-57 0 -103 45 -103 101s46 99 103 99c56 0 102 -43 102 -99s-46 -101 -102 -101zM283 641
c32 0 55 24 55 59c0 33 -23 58 -55 58c-33 0 -56 -25 -56 -58c0 -35 23 -59 56 -59z" />
    <glyph glyph-name="ae" unicode="&#xe6;" horiz-adv-x="918" 
d="M236 -12c-116 0 -194 51 -194 154c0 125 92 153 231 169c80 8 130 23 130 77c0 59 -40 94 -115 94c-85 0 -126 -40 -129 -104h-90c3 91 74 172 218 172c87 0 150 -26 178 -91c39 56 97 91 177 91s138 -31 179 -83c43 -55 62 -132 62 -221h-391c5 -105 56 -185 162 -185
c68 0 115 36 130 92h91c-21 -104 -106 -168 -221 -168c-103 0 -169 46 -206 118h-2c-55 -85 -125 -115 -210 -115zM247 57c107 0 157 80 157 141v88c-27 -17 -74 -30 -118 -38c-88 -16 -146 -30 -146 -105c0 -69 53 -86 107 -86zM642 478c-91 0 -138 -70 -149 -165h292
c-3 104 -59 165 -143 165z" />
    <glyph glyph-name="ccedilla" unicode="&#xe7;" horiz-adv-x="560" 
d="M261 -208c-51 0 -86 14 -111 31l16 31c23 -11 48 -16 75 -16c35 0 63 8 63 35c0 24 -18 33 -42 33c-19 0 -31 -3 -43 -7l-16 25l60 63c-140 16 -228 134 -228 281c0 156 102 282 262 282c129 0 213 -72 232 -188h-93c-13 71 -60 113 -139 113c-110 0 -167 -91 -167 -207
s57 -207 167 -207c84 0 134 49 141 129h92c-12 -121 -87 -196 -212 -204l-47 -42v-2c40 5 103 -8 103 -69c0 -53 -46 -81 -113 -81z" />
    <glyph glyph-name="egrave" unicode="&#xe8;" horiz-adv-x="577" 
d="M297 -15c-165 0 -262 126 -262 283c0 156 102 282 257 282c80 0 141 -31 184 -83c44 -53 66 -129 66 -221h-412c8 -105 64 -185 168 -185c75 0 125 35 142 92h91c-24 -100 -110 -168 -234 -168zM292 478c-96 0 -149 -70 -160 -165h311c-5 104 -58 165 -151 165zM259 625
l-89 145h114l53 -145h-78z" />
    <glyph glyph-name="eacute" unicode="&#xe9;" horiz-adv-x="577" 
d="M297 -15c-165 0 -262 126 -262 283c0 156 102 282 257 282c80 0 141 -31 184 -83c44 -53 66 -129 66 -221h-412c8 -105 64 -185 168 -185c75 0 125 35 142 92h91c-24 -100 -110 -168 -234 -168zM292 478c-96 0 -149 -70 -160 -165h311c-5 104 -58 165 -151 165zM250 625
l53 145h114l-89 -145h-78z" />
    <glyph glyph-name="ecircumflex" unicode="&#xea;" horiz-adv-x="577" 
d="M297 -15c-165 0 -262 126 -262 283c0 156 102 282 257 282c80 0 141 -31 184 -83c44 -53 66 -129 66 -221h-412c8 -105 64 -185 168 -185c75 0 125 35 142 92h91c-24 -100 -110 -168 -234 -168zM292 478c-96 0 -149 -70 -160 -165h311c-5 104 -58 165 -151 165zM146 629
l97 123h103l94 -123h-94l-52 75h-2l-54 -75h-92z" />
    <glyph glyph-name="edieresis" unicode="&#xeb;" horiz-adv-x="577" 
d="M297 -15c-165 0 -262 126 -262 283c0 156 102 282 257 282c80 0 141 -31 184 -83c44 -53 66 -129 66 -221h-412c8 -105 64 -185 168 -185c75 0 125 35 142 92h91c-24 -100 -110 -168 -234 -168zM292 478c-96 0 -149 -70 -160 -165h311c-5 104 -58 165 -151 165zM346 636
v108h92v-108h-92zM148 636v108h92v-108h-92z" />
    <glyph glyph-name="igrave" unicode="&#xec;" horiz-adv-x="221" 
d="M64 0v537h93v-537h-93zM76 625l-89 145h114l53 -145h-78z" />
    <glyph glyph-name="iacute" unicode="&#xed;" horiz-adv-x="221" 
d="M64 0v537h93v-537h-93zM67 625l53 145h114l-89 -145h-78z" />
    <glyph glyph-name="icircumflex" unicode="&#xee;" horiz-adv-x="221" 
d="M64 0v537h93v-537h-93zM-37 629l97 123h103l94 -123h-94l-52 75h-2l-54 -75h-92z" />
    <glyph glyph-name="idieresis" unicode="&#xef;" horiz-adv-x="221" 
d="M64 0v537h93v-537h-93zM143 636v108h92v-108h-92zM-15 636v108h92v-108h-92z" />
    <glyph glyph-name="eth" unicode="&#xf0;" horiz-adv-x="597" 
d="M200 586l-16 48l109 33c-29 27 -59 47 -88 70v7h110c21 -14 42 -31 65 -50l111 34l17 -48l-86 -26c74 -79 137 -195 137 -355c0 -181 -96 -314 -261 -314c-162 0 -263 127 -263 283s94 280 246 280c59 0 115 -18 151 -65h3c-23 56 -59 103 -99 144zM297 61
c110 0 167 94 167 210c0 115 -59 205 -170 205c-108 0 -164 -91 -164 -208c0 -116 57 -207 167 -207z" />
    <glyph glyph-name="ntilde" unicode="&#xf1;" horiz-adv-x="571" 
d="M156 537v-76h3c39 55 91 89 170 89c113 0 181 -62 181 -175v-375h-92v364c0 69 -45 108 -118 108c-84 0 -143 -59 -143 -145v-327h-93v537h92zM357 631c-52 0 -95 39 -123 39c-16 0 -26 -18 -29 -38h-64c3 69 33 107 84 107c56 0 86 -39 123 -39c20 0 25 18 28 37h64
c-3 -67 -27 -106 -83 -106z" />
    <glyph glyph-name="ograve" unicode="&#xf2;" horiz-adv-x="594" 
d="M298 -15c-162 0 -263 126 -263 283c0 156 101 282 263 282s261 -126 261 -282c0 -157 -99 -283 -261 -283zM297 61c110 0 167 91 167 207s-57 208 -167 208s-167 -92 -167 -208s57 -207 167 -207zM263 625l-89 145h114l53 -145h-78z" />
    <glyph glyph-name="oacute" unicode="&#xf3;" horiz-adv-x="594" 
d="M298 -15c-162 0 -263 126 -263 283c0 156 101 282 263 282s261 -126 261 -282c0 -157 -99 -283 -261 -283zM297 61c110 0 167 91 167 207s-57 208 -167 208s-167 -92 -167 -208s57 -207 167 -207zM254 625l53 145h114l-89 -145h-78z" />
    <glyph glyph-name="ocircumflex" unicode="&#xf4;" horiz-adv-x="594" 
d="M298 -15c-162 0 -263 126 -263 283c0 156 101 282 263 282s261 -126 261 -282c0 -157 -99 -283 -261 -283zM297 61c110 0 167 91 167 207s-57 208 -167 208s-167 -92 -167 -208s57 -207 167 -207zM150 629l97 123h103l94 -123h-94l-52 75h-2l-54 -75h-92z" />
    <glyph glyph-name="otilde" unicode="&#xf5;" horiz-adv-x="594" 
d="M298 -15c-162 0 -263 126 -263 283c0 156 101 282 263 282s261 -126 261 -282c0 -157 -99 -283 -261 -283zM297 61c110 0 167 91 167 207s-57 208 -167 208s-167 -92 -167 -208s57 -207 167 -207zM364 631c-52 0 -95 39 -123 39c-16 0 -26 -18 -29 -38h-64
c3 69 33 107 84 107c56 0 86 -39 123 -39c20 0 25 18 28 37h64c-3 -67 -27 -106 -83 -106z" />
    <glyph glyph-name="odieresis" unicode="&#xf6;" horiz-adv-x="594" 
d="M298 -15c-162 0 -263 126 -263 283c0 156 101 282 263 282s261 -126 261 -282c0 -157 -99 -283 -261 -283zM297 61c110 0 167 91 167 207s-57 208 -167 208s-167 -92 -167 -208s57 -207 167 -207zM350 636v108h92v-108h-92zM152 636v108h92v-108h-92z" />
    <glyph glyph-name="divide" unicode="&#xf7;" horiz-adv-x="600" 
d="M246 467v109h109v-109h-109zM63 303v73h474v-73h-474zM246 103v108h109v-108h-109z" />
    <glyph glyph-name="oslash" unicode="&#xf8;" horiz-adv-x="594" 
d="M55 -29l-36 32l74 80c-39 49 -58 113 -58 185c0 156 101 282 263 282c69 0 127 -23 170 -62l70 75l36 -32l-73 -79c37 -49 58 -113 58 -184c0 -157 -99 -283 -261 -283c-71 0 -128 23 -172 62zM129 268c0 -47 8 -86 25 -119l258 279c-27 31 -66 48 -115 48
c-109 0 -168 -92 -168 -208zM297 61c109 0 168 91 168 207c0 44 -8 83 -25 118l-258 -278c28 -29 66 -47 115 -47z" />
    <glyph glyph-name="ugrave" unicode="&#xf9;" horiz-adv-x="564" 
d="M499 0h-92v75h-2c-39 -53 -85 -87 -162 -87c-112 0 -182 66 -182 179v370h93v-365c0 -68 42 -108 117 -108c83 0 135 62 135 146v327h93v-537zM246 625l-89 145h114l53 -145h-78z" />
    <glyph glyph-name="uacute" unicode="&#xfa;" horiz-adv-x="564" 
d="M499 0h-92v75h-2c-39 -53 -85 -87 -162 -87c-112 0 -182 66 -182 179v370h93v-365c0 -68 42 -108 117 -108c83 0 135 62 135 146v327h93v-537zM237 625l53 145h114l-89 -145h-78z" />
    <glyph glyph-name="ucircumflex" unicode="&#xfb;" horiz-adv-x="564" 
d="M499 0h-92v75h-2c-39 -53 -85 -87 -162 -87c-112 0 -182 66 -182 179v370h93v-365c0 -68 42 -108 117 -108c83 0 135 62 135 146v327h93v-537zM133 629l97 123h103l94 -123h-94l-52 75h-2l-54 -75h-92z" />
    <glyph glyph-name="udieresis" unicode="&#xfc;" horiz-adv-x="564" 
d="M499 0h-92v75h-2c-39 -53 -85 -87 -162 -87c-112 0 -182 66 -182 179v370h93v-365c0 -68 42 -108 117 -108c83 0 135 62 135 146v327h93v-537zM135 636v108h92v-108h-92zM333 636v108h92v-108h-92z" />
    <glyph glyph-name="yacute" unicode="&#xfd;" horiz-adv-x="519" 
d="M130 -187c-31 0 -64 4 -79 11v80h4c11 -7 33 -10 56 -10c37 0 61 14 80 65c0 1 22 63 19 68l-205 510h101l111 -298c11 -31 22 -66 31 -95c5 -17 9 -34 14 -50h2c5 16 10 33 15 50c9 29 20 64 31 95l107 298h97l-228 -586c-46 -113 -85 -138 -156 -138zM219 625l53 145
h114l-89 -145h-78z" />
    <glyph glyph-name="thorn" unicode="&#xfe;" horiz-adv-x="596" 
d="M327 -16c-72 0 -132 30 -169 87h-3c1 -19 2 -49 2 -90v-154h-93v917h93v-190c0 -41 -2 -79 -3 -102h3c35 57 96 98 173 98c136 0 231 -107 231 -283c0 -172 -89 -283 -234 -283zM317 61c99 0 149 87 149 204c0 118 -48 206 -148 206c-114 0 -166 -91 -166 -206
c0 -113 46 -204 165 -204z" />
    <glyph glyph-name="ydieresis" unicode="&#xff;" horiz-adv-x="519" 
d="M130 -187c-31 0 -64 4 -79 11v80h4c11 -7 33 -10 56 -10c37 0 61 14 80 65c0 1 22 63 19 68l-205 510h101l111 -298c11 -31 22 -66 31 -95c5 -17 9 -34 14 -50h2c5 16 10 33 15 50c9 29 20 64 31 95l107 298h97l-228 -586c-46 -113 -85 -138 -156 -138zM315 636v108h92
v-108h-92zM117 636v108h92v-108h-92z" />
    <glyph glyph-name="Amacron" unicode="&#x100;" horiz-adv-x="698" 
d="M19 0l272 744h114l274 -744h-112l-74 217h-293l-76 -217h-105zM301 505l-73 -208h238l-71 208c-13 36 -24 75 -32 106c-5 17 -9 35 -13 52h-3c-5 -17 -9 -35 -14 -53c-9 -31 -20 -70 -32 -105zM207 795v75h285v-75h-285z" />
    <glyph glyph-name="amacron" unicode="&#x101;" horiz-adv-x="562" 
d="M224 -11c-102 0 -182 50 -182 153c0 125 92 153 231 169c80 8 130 23 130 77c0 59 -40 94 -115 94c-85 0 -126 -40 -129 -104h-90c3 91 74 172 218 172c51 0 95 -9 130 -29c45 -27 72 -74 72 -146v-251c0 -43 10 -67 57 -56h4v-65c-13 -4 -27 -8 -50 -8
c-57 0 -84 27 -95 84h-1c-34 -47 -90 -90 -180 -90zM247 57c107 0 157 80 157 141v88c-27 -17 -74 -30 -118 -38c-88 -16 -146 -30 -146 -105c0 -69 53 -86 107 -86zM146 659v75h273v-75h-273z" />
    <glyph glyph-name="Abreve" unicode="&#x102;" horiz-adv-x="698" 
d="M19 0l272 744h114l274 -744h-112l-74 217h-293l-76 -217h-105zM301 505l-73 -208h238l-71 208c-13 36 -24 75 -32 106c-5 17 -9 35 -13 52h-3c-5 -17 -9 -35 -14 -53c-9 -31 -20 -70 -32 -105zM349 780c-73 0 -132 48 -136 128h66c7 -37 26 -59 69 -59c41 0 67 22 72 59
h65c-3 -72 -56 -128 -136 -128z" />
    <glyph glyph-name="abreve" unicode="&#x103;" horiz-adv-x="562" 
d="M224 -11c-102 0 -182 50 -182 153c0 125 92 153 231 169c80 8 130 23 130 77c0 59 -40 94 -115 94c-85 0 -126 -40 -129 -104h-90c3 91 74 172 218 172c51 0 95 -9 130 -29c45 -27 72 -74 72 -146v-251c0 -43 10 -67 57 -56h4v-65c-13 -4 -27 -8 -50 -8
c-57 0 -84 27 -95 84h-1c-34 -47 -90 -90 -180 -90zM247 57c107 0 157 80 157 141v88c-27 -17 -74 -30 -118 -38c-88 -16 -146 -30 -146 -105c0 -69 53 -86 107 -86zM282 620c-73 0 -132 48 -136 128h66c7 -37 26 -59 69 -59c41 0 67 22 72 59h65c-3 -72 -56 -128 -136 -128
z" />
    <glyph glyph-name="Aogonek" unicode="&#x104;" horiz-adv-x="698" 
d="M625 -191c-76 0 -112 36 -112 88c0 49 44 85 80 103h-26l-74 217h-293l-76 -217h-105l272 744h114l274 -744c-47 -23 -80 -60 -80 -89c0 -23 14 -35 43 -35c15 0 30 3 41 7h3v-65c-13 -4 -32 -9 -61 -9zM301 505l-73 -208h238l-71 208c-13 36 -24 75 -32 106
c-5 17 -9 35 -13 52h-3c-5 -17 -9 -35 -14 -53c-9 -31 -20 -70 -32 -105z" />
    <glyph glyph-name="aogonek" unicode="&#x105;" horiz-adv-x="562" 
d="M491 -191c-76 0 -112 36 -112 88c0 48 41 83 79 105c-29 11 -46 36 -52 77h-2c-34 -47 -90 -90 -180 -90c-102 0 -182 50 -182 153c0 125 92 153 231 169c80 8 130 23 130 77c0 59 -40 94 -115 94c-85 0 -126 -40 -129 -104h-90c3 91 74 172 218 172c51 0 95 -9 130 -29
c45 -27 72 -74 72 -146v-251c0 -43 10 -67 57 -56h4v-65c-56 -19 -85 -61 -85 -92c0 -23 14 -35 43 -35c15 0 30 3 41 7h3v-65c-13 -4 -32 -9 -61 -9zM247 57c107 0 157 80 157 141v88c-27 -17 -74 -30 -118 -38c-88 -16 -146 -30 -146 -105c0 -69 53 -86 107 -86z" />
    <glyph glyph-name="Cacute" unicode="&#x106;" horiz-adv-x="756" 
d="M399 -15c-212 0 -350 163 -350 387c0 219 132 388 353 388c88 0 156 -25 207 -66c53 -43 84 -103 95 -175h-102c-17 92 -87 152 -202 152c-157 0 -247 -127 -247 -299c0 -179 98 -298 248 -298c134 0 201 91 209 197h102c0 -73 -36 -157 -89 -207
c-53 -53 -127 -79 -224 -79zM346 785l53 125h114l-89 -125h-78z" />
    <glyph glyph-name="cacute" unicode="&#x107;" horiz-adv-x="560" 
d="M297 -15c-160 0 -262 126 -262 283c0 156 102 282 262 282c129 0 213 -72 232 -188h-93c-13 71 -60 113 -139 113c-110 0 -167 -91 -167 -207s57 -207 167 -207c84 0 134 49 141 129h92c-12 -129 -96 -205 -233 -205zM248 625l53 145h114l-89 -145h-78z" />
    <glyph glyph-name="Ccircumflex" unicode="&#x108;" horiz-adv-x="756" 
d="M399 -15c-212 0 -350 163 -350 387c0 219 132 388 353 388c88 0 156 -25 207 -66c53 -43 84 -103 95 -175h-102c-17 92 -87 152 -202 152c-157 0 -247 -127 -247 -299c0 -179 98 -298 248 -298c134 0 201 91 209 197h102c0 -73 -36 -157 -89 -207
c-53 -53 -127 -79 -224 -79zM238 785l101 113h103l98 -113h-96l-54 61h-2l-56 -61h-94z" />
    <glyph glyph-name="ccircumflex" unicode="&#x109;" horiz-adv-x="560" 
d="M297 -15c-160 0 -262 126 -262 283c0 156 102 282 262 282c129 0 213 -72 232 -188h-93c-13 71 -60 113 -139 113c-110 0 -167 -91 -167 -207s57 -207 167 -207c84 0 134 49 141 129h92c-12 -129 -96 -205 -233 -205zM144 629l97 123h103l94 -123h-94l-52 75h-2l-54 -75
h-92z" />
    <glyph glyph-name="Cdotaccent" unicode="&#x10a;" horiz-adv-x="756" 
d="M399 -15c-212 0 -350 163 -350 387c0 219 132 388 353 388c88 0 156 -25 207 -66c53 -43 84 -103 95 -175h-102c-17 92 -87 152 -202 152c-157 0 -247 -127 -247 -299c0 -179 98 -298 248 -298c134 0 201 91 209 197h102c0 -73 -36 -157 -89 -207
c-53 -53 -127 -79 -224 -79zM341 785v108h97v-108h-97z" />
    <glyph glyph-name="cdotaccent" unicode="&#x10b;" horiz-adv-x="560" 
d="M297 -15c-160 0 -262 126 -262 283c0 156 102 282 262 282c129 0 213 -72 232 -188h-93c-13 71 -60 113 -139 113c-110 0 -167 -91 -167 -207s57 -207 167 -207c84 0 134 49 141 129h92c-12 -129 -96 -205 -233 -205zM243 636v108h97v-108h-97z" />
    <glyph glyph-name="Ccaron" unicode="&#x10c;" horiz-adv-x="756" 
d="M399 -15c-212 0 -350 163 -350 387c0 219 132 388 353 388c88 0 156 -25 207 -66c53 -43 84 -103 95 -175h-102c-17 92 -87 152 -202 152c-157 0 -247 -127 -247 -299c0 -179 98 -298 248 -298c134 0 201 91 209 197h102c0 -73 -36 -157 -89 -207
c-53 -53 -127 -79 -224 -79zM540 898l-101 -113h-103l-98 113h96l54 -61h2l56 61h94z" />
    <glyph glyph-name="ccaron" unicode="&#x10d;" horiz-adv-x="560" 
d="M297 -15c-160 0 -262 126 -262 283c0 156 102 282 262 282c129 0 213 -72 232 -188h-93c-13 71 -60 113 -139 113c-110 0 -167 -91 -167 -207s57 -207 167 -207c84 0 134 49 141 129h92c-12 -129 -96 -205 -233 -205zM438 749l-97 -124h-103l-94 124h94l52 -76h2l54 76
h92z" />
    <glyph glyph-name="Dcaron" unicode="&#x10e;" horiz-adv-x="732" 
d="M77 0v744h275c222 0 332 -151 332 -375c0 -221 -116 -369 -339 -369h-268zM180 89h161c168 0 237 108 237 280s-63 286 -231 286h-167v-566zM489 898l-101 -113h-103l-98 113h96l54 -61h2l56 61h94z" />
    <glyph glyph-name="dcaron" unicode="&#x10f;" horiz-adv-x="596" 
d="M272 -16c-145 0 -237 110 -237 283c0 176 102 283 235 283c76 0 135 -38 170 -95h2c-3 24 -3 63 -3 99v190h93v-744h-92v77h-2c-35 -59 -90 -93 -166 -93zM279 61c115 0 165 88 165 205c0 121 -57 206 -165 206c-99 0 -149 -88 -149 -206c0 -117 50 -205 149 -205z
M689 744v-83c0 -68 -41 -101 -102 -104v44c35 5 48 22 48 54h-46v89h100z" />
    <glyph glyph-name="Dcroat" unicode="&#x110;" horiz-adv-x="742" 
d="M13 331v86h74v327h275c223 0 332 -151 332 -375c0 -221 -115 -369 -339 -369h-268v331h-74zM190 89h161c168 0 238 108 238 280s-63 286 -232 286h-167v-238h210v-86h-210v-242z" />
    <glyph glyph-name="dcroat" unicode="&#x111;" horiz-adv-x="596" 
d="M604 670v-62h-72v-608h-92v77h-2c-35 -59 -90 -93 -166 -93c-145 0 -237 110 -237 283c0 176 102 283 235 283c76 0 135 -38 170 -95h2c-3 24 -3 63 -3 99v54h-152v62h152v74h93v-74h72zM279 61c115 0 165 88 165 205c0 121 -57 206 -165 206c-99 0 -149 -88 -149 -206
c0 -117 50 -205 149 -205z" />
    <glyph glyph-name="Emacron" unicode="&#x112;" horiz-adv-x="666" 
d="M77 0v744h529v-90h-427v-225h386v-85h-386v-251h438v-93h-540zM211 795v75h285v-75h-285z" />
    <glyph glyph-name="emacron" unicode="&#x113;" horiz-adv-x="577" 
d="M297 -15c-165 0 -262 126 -262 283c0 156 102 282 257 282c80 0 141 -31 184 -83c44 -53 66 -129 66 -221h-412c8 -105 64 -185 168 -185c75 0 125 35 142 92h91c-24 -100 -110 -168 -234 -168zM292 478c-96 0 -149 -70 -160 -165h311c-5 104 -58 165 -151 165zM157 659
v75h273v-75h-273z" />
    <glyph glyph-name="Ebreve" unicode="&#x114;" horiz-adv-x="666" 
d="M77 0v744h529v-90h-427v-225h386v-85h-386v-251h438v-93h-540zM353 780c-73 0 -132 48 -136 128h66c7 -37 26 -59 69 -59c41 0 67 22 72 59h65c-3 -72 -56 -128 -136 -128z" />
    <glyph glyph-name="ebreve" unicode="&#x115;" horiz-adv-x="577" 
d="M297 -15c-165 0 -262 126 -262 283c0 156 102 282 257 282c80 0 141 -31 184 -83c44 -53 66 -129 66 -221h-412c8 -105 64 -185 168 -185c75 0 125 35 142 92h91c-24 -100 -110 -168 -234 -168zM292 478c-96 0 -149 -70 -160 -165h311c-5 104 -58 165 -151 165zM293 620
c-73 0 -132 48 -136 128h66c7 -37 26 -59 69 -59c41 0 67 22 72 59h65c-3 -72 -56 -128 -136 -128z" />
    <glyph glyph-name="Edotaccent" unicode="&#x116;" horiz-adv-x="666" 
d="M77 0v744h529v-90h-427v-225h386v-85h-386v-251h438v-93h-540zM305 785v108h97v-108h-97z" />
    <glyph glyph-name="edotaccent" unicode="&#x117;" horiz-adv-x="577" 
d="M297 -15c-165 0 -262 126 -262 283c0 156 102 282 257 282c80 0 141 -31 184 -83c44 -53 66 -129 66 -221h-412c8 -105 64 -185 168 -185c75 0 125 35 142 92h91c-24 -100 -110 -168 -234 -168zM292 478c-96 0 -149 -70 -160 -165h311c-5 104 -58 165 -151 165zM245 636
v108h97v-108h-97z" />
    <glyph glyph-name="Eogonek" unicode="&#x118;" horiz-adv-x="666" 
d="M77 0v744h529v-90h-427v-225h386v-85h-386v-251h438v-93h-56c-35 -28 -63 -60 -63 -89c0 -23 14 -35 43 -35c15 0 30 3 41 7h3v-65c-13 -4 -32 -9 -61 -9c-76 0 -112 36 -112 88c0 49 44 85 80 103h-415z" />
    <glyph glyph-name="eogonek" unicode="&#x119;" horiz-adv-x="577" 
d="M370 -191c-76 0 -112 36 -112 88c0 39 26 69 55 89c-5 -1 -11 -1 -16 -1c-165 0 -262 126 -262 283c0 156 102 282 257 282c80 0 141 -31 184 -83c44 -53 66 -129 66 -221h-412c8 -105 64 -185 168 -185c75 0 125 35 142 92h91c-18 -78 -71 -118 -100 -137
c-58 -39 -87 -74 -87 -105c0 -23 14 -35 43 -35c15 0 30 3 41 7h3v-65c-13 -4 -32 -9 -61 -9zM292 478c-96 0 -149 -70 -160 -165h311c-5 104 -58 165 -151 165z" />
    <glyph glyph-name="Ecaron" unicode="&#x11a;" horiz-adv-x="666" 
d="M77 0v744h529v-90h-427v-225h386v-85h-386v-251h438v-93h-540zM504 898l-101 -113h-103l-98 113h96l54 -61h2l56 61h94z" />
    <glyph glyph-name="ecaron" unicode="&#x11b;" horiz-adv-x="577" 
d="M297 -15c-165 0 -262 126 -262 283c0 156 102 282 257 282c80 0 141 -31 184 -83c44 -53 66 -129 66 -221h-412c8 -105 64 -185 168 -185c75 0 125 35 142 92h91c-24 -100 -110 -168 -234 -168zM292 478c-96 0 -149 -70 -160 -165h311c-5 104 -58 165 -151 165zM440 749
l-97 -124h-103l-94 124h94l52 -76h2l54 76h92z" />
    <glyph glyph-name="Gcircumflex" unicode="&#x11c;" horiz-adv-x="781" 
d="M658 0l-27 105h-3c-53 -81 -133 -121 -230 -121c-104 0 -191 40 -252 108c-63 68 -97 164 -97 277s32 210 95 281c60 68 147 109 263 109c176 0 275 -95 304 -231h-106c-23 84 -84 143 -199 143c-174 0 -253 -130 -253 -302c0 -176 103 -296 250 -296
c148 0 219 101 219 218v16h-216v87h317v-394h-65zM250 785l101 113h103l98 -113h-96l-54 61h-2l-56 -61h-94z" />
    <glyph glyph-name="gcircumflex" unicode="&#x11d;" horiz-adv-x="595" 
d="M291 -188c-141 0 -220 55 -231 151h87c8 -56 62 -79 142 -79c96 0 149 42 149 134v15c0 31 1 60 2 77h-2c-37 -53 -84 -86 -160 -86c-137 0 -235 107 -235 263c0 165 104 263 230 263c77 0 128 -29 163 -84h2v71h92v-515c0 -72 -24 -124 -65 -159
c-43 -35 -102 -51 -174 -51zM287 100c117 0 157 82 157 191c0 113 -50 182 -158 182c-99 0 -148 -74 -148 -187c0 -115 52 -186 149 -186zM145 629l97 123h103l94 -123h-94l-52 75h-2l-54 -75h-92z" />
    <glyph glyph-name="Gbreve" unicode="&#x11e;" horiz-adv-x="781" 
d="M658 0l-27 105h-3c-53 -81 -133 -121 -230 -121c-104 0 -191 40 -252 108c-63 68 -97 164 -97 277s32 210 95 281c60 68 147 109 263 109c176 0 275 -95 304 -231h-106c-23 84 -84 143 -199 143c-174 0 -253 -130 -253 -302c0 -176 103 -296 250 -296
c148 0 219 101 219 218v16h-216v87h317v-394h-65zM401 780c-73 0 -132 48 -136 128h66c7 -37 26 -59 69 -59c41 0 67 22 72 59h65c-3 -72 -56 -128 -136 -128z" />
    <glyph glyph-name="gbreve" unicode="&#x11f;" horiz-adv-x="595" 
d="M291 -188c-141 0 -220 55 -231 151h87c8 -56 62 -79 142 -79c96 0 149 42 149 134v15c0 31 1 60 2 77h-2c-37 -53 -84 -86 -160 -86c-137 0 -235 107 -235 263c0 165 104 263 230 263c77 0 128 -29 163 -84h2v71h92v-515c0 -72 -24 -124 -65 -159
c-43 -35 -102 -51 -174 -51zM287 100c117 0 157 82 157 191c0 113 -50 182 -158 182c-99 0 -148 -74 -148 -187c0 -115 52 -186 149 -186zM292 620c-73 0 -132 48 -136 128h66c7 -37 26 -59 69 -59c41 0 67 22 72 59h65c-3 -72 -56 -128 -136 -128z" />
    <glyph glyph-name="Gdotaccent" unicode="&#x120;" horiz-adv-x="781" 
d="M658 0l-27 105h-3c-53 -81 -133 -121 -230 -121c-104 0 -191 40 -252 108c-63 68 -97 164 -97 277s32 210 95 281c60 68 147 109 263 109c176 0 275 -95 304 -231h-106c-23 84 -84 143 -199 143c-174 0 -253 -130 -253 -302c0 -176 103 -296 250 -296
c148 0 219 101 219 218v16h-216v87h317v-394h-65zM353 785v108h97v-108h-97z" />
    <glyph glyph-name="gdotaccent" unicode="&#x121;" horiz-adv-x="595" 
d="M291 -188c-141 0 -220 55 -231 151h87c8 -56 62 -79 142 -79c96 0 149 42 149 134v15c0 31 1 60 2 77h-2c-37 -53 -84 -86 -160 -86c-137 0 -235 107 -235 263c0 165 104 263 230 263c77 0 128 -29 163 -84h2v71h92v-515c0 -72 -24 -124 -65 -159
c-43 -35 -102 -51 -174 -51zM287 100c117 0 157 82 157 191c0 113 -50 182 -158 182c-99 0 -148 -74 -148 -187c0 -115 52 -186 149 -186zM244 636v108h97v-108h-97z" />
    <glyph glyph-name="uni0122" unicode="&#x122;" horiz-adv-x="781" 
d="M658 0l-27 105h-3c-53 -81 -133 -121 -230 -121c-104 0 -191 40 -252 108c-63 68 -97 164 -97 277s32 210 95 281c60 68 147 109 263 109c176 0 275 -95 304 -231h-106c-23 84 -84 143 -199 143c-174 0 -253 -130 -253 -302c0 -176 103 -296 250 -296
c148 0 219 101 219 218v16h-216v87h317v-394h-65zM456 -51v-90c0 -68 -41 -101 -109 -104v44c37 5 55 22 55 52v2h-54v96h108z" />
    <glyph glyph-name="uni0123" unicode="&#x123;" horiz-adv-x="595" 
d="M291 -188c-141 0 -220 55 -231 151h87c8 -56 62 -79 142 -79c96 0 149 42 149 134v15c0 31 1 60 2 77h-2c-37 -53 -84 -86 -160 -86c-137 0 -235 107 -235 263c0 165 104 263 230 263c77 0 128 -29 163 -84h2v71h92v-515c0 -72 -24 -124 -65 -159
c-43 -35 -102 -51 -174 -51zM287 100c117 0 157 82 157 191c0 113 -50 182 -158 182c-99 0 -148 -74 -148 -187c0 -115 52 -186 149 -186zM238 636v90c0 68 41 101 109 104v-44c-37 -5 -55 -22 -55 -52v-2h54v-96h-108z" />
    <glyph glyph-name="Hcircumflex" unicode="&#x124;" horiz-adv-x="743" 
d="M77 0v744h102v-313h384v313h103v-744h-103v348h-384v-348h-102zM220 785l101 113h103l98 -113h-96l-54 61h-2l-56 -61h-94z" />
    <glyph glyph-name="hcircumflex" unicode="&#x125;" horiz-adv-x="571" 
d="M157 744v-195c0 -27 -2 -63 -3 -90h3c40 57 93 91 172 91c113 0 181 -62 181 -175v-375h-92v364c0 69 -45 108 -118 108c-84 0 -143 -59 -143 -145v-327h-93v744h93zM136 785l101 113h103l98 -113h-96l-54 61h-2l-56 -61h-94z" />
    <glyph glyph-name="Hbar" unicode="&#x126;" horiz-adv-x="743" 
d="M2 540v73h75v131h102v-131h384v131h103v-131h75v-73h-75v-540h-103v348h-384v-348h-102v540h-75zM179 540v-109h384v109h-384z" />
    <glyph glyph-name="hbar" unicode="&#x127;" horiz-adv-x="571" 
d="M-8 608v62h72v74h93v-74h152v-62h-152v-59c0 -27 -2 -63 -3 -90h3c40 57 93 91 172 91c113 0 181 -62 181 -175v-375h-92v364c0 69 -45 108 -118 108c-84 0 -143 -59 -143 -145v-327h-93v608h-72z" />
    <glyph glyph-name="Itilde" unicode="&#x128;" horiz-adv-x="260" 
d="M79 0v744h102v-744h-102zM197 786c-52 0 -95 39 -123 39c-16 0 -26 -18 -29 -38h-64c3 69 33 107 84 107c56 0 86 -39 123 -39c20 0 25 18 28 37h64c-3 -67 -27 -106 -83 -106z" />
    <glyph glyph-name="itilde" unicode="&#x129;" horiz-adv-x="221" 
d="M64 0v537h93v-537h-93zM177 631c-52 0 -95 39 -123 39c-16 0 -26 -18 -29 -38h-64c3 69 33 107 84 107c56 0 86 -39 123 -39c20 0 25 18 28 37h64c-3 -67 -27 -106 -83 -106z" />
    <glyph glyph-name="Imacron" unicode="&#x12a;" horiz-adv-x="260" 
d="M79 0v744h102v-744h-102zM8 795v75h245v-75h-245z" />
    <glyph glyph-name="imacron" unicode="&#x12b;" horiz-adv-x="221" 
d="M64 0v537h93v-537h-93zM4 659v75h214v-75h-214z" />
    <glyph glyph-name="Iogonek" unicode="&#x12e;" horiz-adv-x="260" 
d="M79 0v744h102v-744c-41 -23 -71 -60 -71 -89c0 -23 14 -35 43 -35c15 0 30 3 41 7h3v-65c-13 -4 -32 -9 -61 -9c-76 0 -112 36 -112 88c0 49 44 85 80 103h-25z" />
    <glyph glyph-name="iogonek" unicode="&#x12f;" horiz-adv-x="221" 
d="M64 0v537h93v-537c-40 -24 -70 -60 -70 -89c0 -23 14 -35 43 -35c15 0 30 3 41 7h3v-65c-13 -4 -32 -9 -61 -9c-76 0 -112 36 -112 88c0 49 44 85 80 103h-17zM62 636v108h97v-108h-97z" />
    <glyph glyph-name="Idotaccent" unicode="&#x130;" horiz-adv-x="260" 
d="M79 0v744h102v-744h-102zM82 785v108h97v-108h-97z" />
    <glyph glyph-name="dotlessi" unicode="&#x131;" horiz-adv-x="221" 
d="M64 0v537h93v-537h-93z" />
    <glyph glyph-name="IJ" unicode="&#x132;" horiz-adv-x="769" 
d="M79 0v744h102v-744h-102zM484 -15c-139 0 -223 74 -223 245v16h100v-13c0 -125 40 -163 124 -163c73 0 115 38 115 127v547h102v-553c0 -60 -17 -110 -53 -146c-36 -37 -90 -60 -165 -60z" />
    <glyph glyph-name="ij" unicode="&#x133;" horiz-adv-x="443" 
d="M251 -170c-20 0 -37 2 -52 5v74h3c10 -2 20 -3 29 -3c36 1 54 14 54 53v578h93v-583c0 -52 -13 -81 -36 -100c-24 -19 -55 -24 -91 -24zM64 0v537h93v-537h-93zM283 636v108h97v-108h-97zM62 636v108h97v-108h-97z" />
    <glyph glyph-name="Jcircumflex" unicode="&#x134;" horiz-adv-x="539" 
d="M254 -15c-139 0 -223 74 -223 245v16h100v-13c0 -125 40 -163 124 -163c73 0 115 38 115 127v547h102v-553c0 -60 -17 -110 -53 -146c-36 -37 -90 -60 -165 -60zM268 785l101 113h103l98 -113h-96l-54 61h-2l-56 -61h-94z" />
    <glyph glyph-name="jcircumflex" unicode="&#x135;" horiz-adv-x="222" 
d="M30 -170c-20 0 -37 2 -52 5v74h3c10 -2 20 -3 29 -3c36 1 54 14 54 53v578h93v-583c0 -52 -13 -81 -36 -100c-24 -19 -55 -24 -91 -24zM-38 629l97 123h103l94 -123h-94l-52 75h-2l-54 -75h-92z" />
    <glyph glyph-name="uni0136" unicode="&#x136;" horiz-adv-x="686" 
d="M77 0v744h102v-230c0 -51 -1 -101 -4 -137l359 368h128l-299 -299l323 -446h-119l-275 380l-113 -111v-269h-102zM403 -51v-90c0 -68 -41 -101 -109 -104v44c37 5 55 22 55 52v2h-54v96h108z" />
    <glyph glyph-name="uni0137" unicode="&#x137;" horiz-adv-x="542" 
d="M417 0l-184 283l-76 -72v-211h-93v744h93v-353c0 -19 -1 -56 -4 -83l233 229h116l-205 -193l229 -344h-109zM326 -51v-90c0 -68 -41 -101 -109 -104v44c37 5 55 22 55 52v2h-54v96h108z" />
    <glyph glyph-name="Lacute" unicode="&#x139;" horiz-adv-x="595" 
d="M77 0v744h102v-651h385v-93h-487zM84 785l53 125h114l-89 -125h-78z" />
    <glyph glyph-name="lacute" unicode="&#x13a;" horiz-adv-x="227" 
d="M67 0v744h93v-744h-93zM70 785l53 125h114l-89 -125h-78z" />
    <glyph glyph-name="uni013B" unicode="&#x13b;" horiz-adv-x="595" 
d="M77 0v744h102v-651h385v-93h-487zM378 -51v-90c0 -68 -41 -101 -109 -104v44c37 5 55 22 55 52v2h-54v96h108z" />
    <glyph glyph-name="uni013C" unicode="&#x13c;" horiz-adv-x="227" 
d="M67 0v744h93v-744h-93zM168 -51v-90c0 -68 -41 -101 -109 -104v44c37 5 55 22 55 52v2h-54v96h108z" />
    <glyph glyph-name="Lcaron" unicode="&#x13d;" horiz-adv-x="595" 
d="M445 744v-96c0 -71 -41 -104 -105 -107v45c36 7 49 23 49 56h-47v102h103zM77 0v744h102v-651h385v-93h-487z" />
    <glyph glyph-name="lcaron" unicode="&#x13e;" horiz-adv-x="227" 
d="M67 0v744h93v-744h-93zM317 744v-83c0 -68 -41 -101 -102 -104v44c35 5 48 22 48 54h-46v89h100z" />
    <glyph glyph-name="Ldot" unicode="&#x13f;" horiz-adv-x="595" 
d="M77 0v744h102v-651h385v-93h-487zM385 303v110h108v-110h-108z" />
    <glyph glyph-name="ldot" unicode="&#x140;" horiz-adv-x="349" 
d="M67 0v744h93v-744h-93zM234 303v110h108v-110h-108z" />
    <glyph glyph-name="Lslash" unicode="&#x141;" horiz-adv-x="596" 
d="M4 207v85l74 39v413h102v-358l252 135v-84l-252 -136v-208h384v-93h-486v247z" />
    <glyph glyph-name="lslash" unicode="&#x142;" horiz-adv-x="267" 
d="M7 240v84l80 62v358h93v-285l90 70v-84l-90 -70v-375h-93v302z" />
    <glyph glyph-name="Nacute" unicode="&#x143;" horiz-adv-x="741" 
d="M77 0v744h107l305 -466c19 -28 39 -64 55 -95c9 -17 19 -35 28 -53h3c-1 19 -3 37 -4 56c-3 32 -3 72 -3 103v455h96v-744h-106l-304 466c-19 28 -39 63 -56 94c-10 17 -20 35 -29 53h-2c1 -19 2 -37 3 -56c1 -32 3 -70 3 -101v-456h-96zM335 785l53 125h114l-89 -125
h-78z" />
    <glyph glyph-name="nacute" unicode="&#x144;" horiz-adv-x="571" 
d="M156 537v-76h3c39 55 91 89 170 89c113 0 181 -62 181 -175v-375h-92v364c0 69 -45 108 -118 108c-84 0 -143 -59 -143 -145v-327h-93v537h92zM247 625l53 145h114l-89 -145h-78z" />
    <glyph glyph-name="uni0145" unicode="&#x145;" horiz-adv-x="741" 
d="M77 0v744h107l305 -466c19 -28 39 -64 55 -95c9 -17 19 -35 28 -53h3c-1 19 -3 37 -4 56c-3 32 -3 72 -3 103v455h96v-744h-106l-304 466c-19 28 -39 63 -56 94c-10 17 -20 35 -29 53h-2c1 -19 2 -37 3 -56c1 -32 3 -70 3 -101v-456h-96zM433 -51v-90
c0 -68 -41 -101 -109 -104v44c37 5 55 22 55 52v2h-54v96h108z" />
    <glyph glyph-name="uni0146" unicode="&#x146;" horiz-adv-x="571" 
d="M156 537v-76h3c39 55 91 89 170 89c113 0 181 -62 181 -175v-375h-92v364c0 69 -45 108 -118 108c-84 0 -143 -59 -143 -145v-327h-93v537h92zM345 -51v-90c0 -68 -41 -101 -109 -104v44c37 5 55 22 55 52v2h-54v96h108z" />
    <glyph glyph-name="Ncaron" unicode="&#x147;" horiz-adv-x="741" 
d="M77 0v744h107l305 -466c19 -28 39 -64 55 -95c9 -17 19 -35 28 -53h3c-1 19 -3 37 -4 56c-3 32 -3 72 -3 103v455h96v-744h-106l-304 466c-19 28 -39 63 -56 94c-10 17 -20 35 -29 53h-2c1 -19 2 -37 3 -56c1 -32 3 -70 3 -101v-456h-96zM529 898l-101 -113h-103l-98 113
h96l54 -61h2l56 61h94z" />
    <glyph glyph-name="ncaron" unicode="&#x148;" horiz-adv-x="571" 
d="M156 537v-76h3c39 55 91 89 170 89c113 0 181 -62 181 -175v-375h-92v364c0 69 -45 108 -118 108c-84 0 -143 -59 -143 -145v-327h-93v537h92zM437 749l-97 -124h-103l-94 124h94l52 -76h2l54 76h92z" />
    <glyph glyph-name="napostrophe" unicode="&#x149;" horiz-adv-x="571" 
d="M156 537v-76h3c39 55 91 89 170 89c113 0 181 -62 181 -175v-375h-92v364c0 69 -45 108 -118 108c-84 0 -143 -59 -143 -145v-327h-93v537h92zM64 744v-83c0 -68 -41 -101 -102 -104v44c35 5 48 22 48 54h-46v89h100z" />
    <glyph glyph-name="Omacron" unicode="&#x14c;" horiz-adv-x="826" 
d="M413 -16c-225 0 -364 167 -364 388c0 223 139 388 364 388c224 0 365 -165 365 -388c0 -221 -141 -388 -365 -388zM413 74c169 0 259 127 259 298s-90 300 -259 300c-168 0 -260 -129 -260 -300s92 -298 260 -298zM271 795v75h285v-75h-285z" />
    <glyph glyph-name="omacron" unicode="&#x14d;" horiz-adv-x="594" 
d="M298 -15c-162 0 -263 126 -263 283c0 156 101 282 263 282s261 -126 261 -282c0 -157 -99 -283 -261 -283zM297 61c110 0 167 91 167 207s-57 208 -167 208s-167 -92 -167 -208s57 -207 167 -207zM161 659v75h273v-75h-273z" />
    <glyph glyph-name="Obreve" unicode="&#x14e;" horiz-adv-x="826" 
d="M413 -16c-225 0 -364 167 -364 388c0 223 139 388 364 388c224 0 365 -165 365 -388c0 -221 -141 -388 -365 -388zM413 74c169 0 259 127 259 298s-90 300 -259 300c-168 0 -260 -129 -260 -300s92 -298 260 -298zM413 780c-73 0 -132 48 -136 128h66
c7 -37 26 -59 69 -59c41 0 67 22 72 59h65c-3 -72 -56 -128 -136 -128z" />
    <glyph glyph-name="obreve" unicode="&#x14f;" horiz-adv-x="594" 
d="M298 -15c-162 0 -263 126 -263 283c0 156 101 282 263 282s261 -126 261 -282c0 -157 -99 -283 -261 -283zM297 61c110 0 167 91 167 207s-57 208 -167 208s-167 -92 -167 -208s57 -207 167 -207zM297 620c-73 0 -132 48 -136 128h66c7 -37 26 -59 69 -59
c41 0 67 22 72 59h65c-3 -72 -56 -128 -136 -128z" />
    <glyph glyph-name="Ohungarumlaut" unicode="&#x150;" horiz-adv-x="826" 
d="M413 -16c-225 0 -364 167 -364 388c0 223 139 388 364 388c224 0 365 -165 365 -388c0 -221 -141 -388 -365 -388zM413 74c169 0 259 127 259 298s-90 300 -259 300c-168 0 -260 -129 -260 -300s92 -298 260 -298zM447 785l31 125h97l-59 -125h-69zM301 785l30 125h99
l-58 -125h-71z" />
    <glyph glyph-name="ohungarumlaut" unicode="&#x151;" horiz-adv-x="594" 
d="M298 -15c-162 0 -263 126 -263 283c0 156 101 282 263 282s261 -126 261 -282c0 -157 -99 -283 -261 -283zM297 61c110 0 167 91 167 207s-57 208 -167 208s-167 -92 -167 -208s57 -207 167 -207zM337 625l33 145h93l-59 -145h-67zM194 625l34 145h94l-60 -145h-68z" />
    <glyph glyph-name="Racute" unicode="&#x154;" horiz-adv-x="700" 
d="M77 0v744h348c133 0 223 -81 223 -205c0 -91 -37 -155 -136 -186v-3c84 -24 107 -76 115 -182c8 -117 20 -153 34 -163v-5h-109c-17 14 -19 48 -27 167c-7 105 -51 143 -148 143h-198v-310h-102zM179 656v-264h213c101 0 151 51 151 132c0 88 -41 132 -146 132h-218z
M309 785l53 125h114l-89 -125h-78z" />
    <glyph glyph-name="racute" unicode="&#x155;" horiz-adv-x="379" 
d="M156 537v-97h3c33 63 87 104 159 104c15 0 23 -2 34 -6v-88h-3c-13 4 -22 5 -38 5c-83 0 -154 -63 -154 -163v-292h-93v537h92zM177 625l53 145h114l-89 -145h-78z" />
    <glyph glyph-name="uni0156" unicode="&#x156;" horiz-adv-x="700" 
d="M77 0v744h348c133 0 223 -81 223 -205c0 -91 -37 -155 -136 -186v-3c84 -24 107 -76 115 -182c8 -117 20 -153 34 -163v-5h-109c-17 14 -19 48 -27 167c-7 105 -51 143 -148 143h-198v-310h-102zM179 656v-264h213c101 0 151 51 151 132c0 88 -41 132 -146 132h-218z
M409 -51v-90c0 -68 -41 -101 -109 -104v44c37 5 55 22 55 52v2h-54v96h108z" />
    <glyph glyph-name="uni0157" unicode="&#x157;" horiz-adv-x="379" 
d="M156 537v-97h3c33 63 87 104 159 104c15 0 23 -2 34 -6v-88h-3c-13 4 -22 5 -38 5c-83 0 -154 -63 -154 -163v-292h-93v537h92zM166 -51v-90c0 -68 -41 -101 -109 -104v44c37 5 55 22 55 52v2h-54v96h108z" />
    <glyph glyph-name="Rcaron" unicode="&#x158;" horiz-adv-x="700" 
d="M77 0v744h348c133 0 223 -81 223 -205c0 -91 -37 -155 -136 -186v-3c84 -24 107 -76 115 -182c8 -117 20 -153 34 -163v-5h-109c-17 14 -19 48 -27 167c-7 105 -51 143 -148 143h-198v-310h-102zM179 656v-264h213c101 0 151 51 151 132c0 88 -41 132 -146 132h-218z
M503 898l-101 -113h-103l-98 113h96l54 -61h2l56 61h94z" />
    <glyph glyph-name="rcaron" unicode="&#x159;" horiz-adv-x="379" 
d="M156 537v-97h3c33 63 87 104 159 104c15 0 23 -2 34 -6v-88h-3c-13 4 -22 5 -38 5c-83 0 -154 -63 -154 -163v-292h-93v537h92zM367 749l-97 -124h-103l-94 124h94l52 -76h2l54 76h92z" />
    <glyph glyph-name="Sacute" unicode="&#x15a;" horiz-adv-x="672" 
d="M350 -15c-208 0 -311 114 -319 256h101c12 -113 85 -174 221 -174c99 0 171 44 171 134c0 97 -86 120 -216 149c-133 27 -246 67 -246 209c0 125 106 199 258 199c184 0 264 -92 283 -219h-99c-13 91 -78 139 -183 139c-99 0 -162 -39 -162 -114c0 -81 81 -103 193 -127
c144 -29 275 -66 275 -232c0 -141 -116 -220 -277 -220zM287 785l53 125h114l-89 -125h-78z" />
    <glyph glyph-name="sacute" unicode="&#x15b;" horiz-adv-x="522" 
d="M270 -16c-149 0 -232 70 -240 179h94c11 -77 72 -104 148 -104c85 0 121 37 121 85c0 59 -45 74 -140 93c-105 22 -200 44 -200 162c0 92 72 150 197 150c135 0 202 -63 214 -156h-93c-8 56 -46 86 -123 86c-73 0 -104 -34 -104 -75c0 -57 52 -66 143 -85
c107 -21 199 -45 199 -170c0 -109 -90 -165 -216 -165zM214 625l53 145h114l-89 -145h-78z" />
    <glyph glyph-name="Scircumflex" unicode="&#x15c;" horiz-adv-x="672" 
d="M350 -15c-208 0 -311 114 -319 256h101c12 -113 85 -174 221 -174c99 0 171 44 171 134c0 97 -86 120 -216 149c-133 27 -246 67 -246 209c0 125 106 199 258 199c184 0 264 -92 283 -219h-99c-13 91 -78 139 -183 139c-99 0 -162 -39 -162 -114c0 -81 81 -103 193 -127
c144 -29 275 -66 275 -232c0 -141 -116 -220 -277 -220zM173 785l101 113h103l98 -113h-96l-54 61h-2l-56 -61h-94z" />
    <glyph glyph-name="scircumflex" unicode="&#x15d;" horiz-adv-x="522" 
d="M270 -16c-149 0 -232 70 -240 179h94c11 -77 72 -104 148 -104c85 0 121 37 121 85c0 59 -45 74 -140 93c-105 22 -200 44 -200 162c0 92 72 150 197 150c135 0 202 -63 214 -156h-93c-8 56 -46 86 -123 86c-73 0 -104 -34 -104 -75c0 -57 52 -66 143 -85
c107 -21 199 -45 199 -170c0 -109 -90 -165 -216 -165zM112 629l97 123h103l94 -123h-94l-52 75h-2l-54 -75h-92z" />
    <glyph glyph-name="Scedilla" unicode="&#x15e;" horiz-adv-x="672" 
d="M303 -208c-51 0 -86 14 -111 31l16 31c23 -11 48 -16 75 -16c35 0 63 8 63 35c0 24 -18 33 -42 33c-19 0 -31 -3 -43 -7l-16 25l60 63c-179 16 -266 121 -274 254h101c12 -113 85 -174 221 -174c99 0 171 44 171 134c0 97 -86 120 -216 149c-133 27 -246 67 -246 209
c0 125 106 199 258 199c184 0 264 -92 283 -219h-99c-13 91 -78 139 -183 139c-99 0 -162 -39 -162 -114c0 -81 81 -103 193 -127c144 -29 275 -66 275 -232c0 -139 -111 -217 -267 -220l-47 -41v-2c40 5 103 -8 103 -69c0 -53 -46 -81 -113 -81z" />
    <glyph glyph-name="scedilla" unicode="&#x15f;" horiz-adv-x="522" 
d="M229 -208c-51 0 -86 14 -111 31l16 31c23 -11 48 -16 75 -16c35 0 63 8 63 35c0 24 -18 33 -42 33c-19 0 -31 -3 -43 -7l-16 25l59 62c-124 11 -193 77 -200 177h94c11 -77 72 -104 148 -104c85 0 121 37 121 85c0 59 -45 74 -140 93c-105 22 -200 44 -200 162
c0 92 72 150 197 150c135 0 202 -63 214 -156h-93c-8 56 -46 86 -123 86c-73 0 -104 -34 -104 -75c0 -57 52 -66 143 -85c107 -21 199 -45 199 -170c0 -103 -84 -161 -201 -164l-46 -41v-2c40 5 103 -8 103 -69c0 -53 -46 -81 -113 -81z" />
    <glyph glyph-name="uni0162" unicode="&#x162;" horiz-adv-x="654" 
d="M31 654v90h592v-90h-245v-654h-103v654h-244zM382 -51v-90c0 -68 -41 -101 -109 -104v44c37 5 55 22 55 52v2h-54v96h108z" />
    <glyph glyph-name="uni0163" unicode="&#x163;" horiz-adv-x="351" 
d="M31 465v72h84v169h92v-169h111v-72h-111v-339c0 -39 20 -50 55 -50c16 0 36 4 47 7h3v-78c-25 -6 -50 -9 -75 -9c-72 1 -122 30 -122 109v360h-84zM257 -51v-90c0 -68 -41 -101 -109 -104v44c37 5 55 22 55 52v2h-54v96h108z" />
    <glyph glyph-name="uni021A" unicode="&#x21a;" horiz-adv-x="654" 
d="M31 654v90h592v-90h-245v-654h-103v654h-244zM382 -51v-90c0 -68 -41 -101 -109 -104v44c37 5 55 22 55 52v2h-54v96h108z" />
    <glyph glyph-name="uni021B" unicode="&#x21b;" horiz-adv-x="351" 
d="M31 465v72h84v169h92v-169h111v-72h-111v-339c0 -39 20 -50 55 -50c16 0 36 4 47 7h3v-78c-25 -6 -50 -9 -75 -9c-72 1 -122 30 -122 109v360h-84zM257 -51v-90c0 -68 -41 -101 -109 -104v44c37 5 55 22 55 52v2h-54v96h108z" />
    <glyph glyph-name="Tcaron" unicode="&#x164;" horiz-adv-x="654" 
d="M31 654v90h592v-90h-245v-654h-103v654h-244zM478 898l-101 -113h-103l-98 113h96l54 -61h2l56 61h94z" />
    <glyph glyph-name="tcaron" unicode="&#x165;" horiz-adv-x="351" 
d="M31 465v72h84v169h92v-169h111v-72h-111v-339c0 -39 20 -50 55 -50c16 0 36 4 47 7h3v-78c-25 -6 -50 -9 -75 -9c-72 1 -122 30 -122 109v360h-84zM375 744v-76c0 -67 -41 -98 -102 -101v44c35 5 48 20 48 51h-46v82h100z" />
    <glyph glyph-name="Tbar" unicode="&#x166;" horiz-adv-x="654" 
d="M31 654v90h592v-90h-245v-221h167v-80h-167v-353h-103v353h-166v80h166v221h-244z" />
    <glyph glyph-name="tbar" unicode="&#x167;" horiz-adv-x="351" 
d="M31 465v72h84v169h92v-169h111v-72h-111v-103h111v-68h-111v-168c0 -39 20 -50 55 -50c16 0 36 4 47 7h3v-78c-25 -6 -50 -9 -75 -9c-72 1 -122 30 -122 109v189h-84v68h84v103h-84z" />
    <glyph glyph-name="Utilde" unicode="&#x168;" horiz-adv-x="704" 
d="M352 -11c-167 0 -287 74 -287 253v502h102v-493c0 -123 67 -175 187 -175c116 0 183 52 183 175v493h102v-502c0 -179 -124 -253 -287 -253zM419 786c-52 0 -95 39 -123 39c-16 0 -26 -18 -29 -38h-64c3 69 33 107 84 107c56 0 86 -39 123 -39c20 0 25 18 28 37h64
c-3 -67 -27 -106 -83 -106z" />
    <glyph glyph-name="utilde" unicode="&#x169;" horiz-adv-x="564" 
d="M499 0h-92v75h-2c-39 -53 -85 -87 -162 -87c-112 0 -182 66 -182 179v370h93v-365c0 -68 42 -108 117 -108c83 0 135 62 135 146v327h93v-537zM347 631c-52 0 -95 39 -123 39c-16 0 -26 -18 -29 -38h-64c3 69 33 107 84 107c56 0 86 -39 123 -39c20 0 25 18 28 37h64
c-3 -67 -27 -106 -83 -106z" />
    <glyph glyph-name="Umacron" unicode="&#x16a;" horiz-adv-x="704" 
d="M352 -11c-167 0 -287 74 -287 253v502h102v-493c0 -123 67 -175 187 -175c116 0 183 52 183 175v493h102v-502c0 -179 -124 -253 -287 -253zM210 795v75h285v-75h-285z" />
    <glyph glyph-name="umacron" unicode="&#x16b;" horiz-adv-x="564" 
d="M499 0h-92v75h-2c-39 -53 -85 -87 -162 -87c-112 0 -182 66 -182 179v370h93v-365c0 -68 42 -108 117 -108c83 0 135 62 135 146v327h93v-537zM144 659v75h273v-75h-273z" />
    <glyph glyph-name="Ubreve" unicode="&#x16c;" horiz-adv-x="704" 
d="M352 -11c-167 0 -287 74 -287 253v502h102v-493c0 -123 67 -175 187 -175c116 0 183 52 183 175v493h102v-502c0 -179 -124 -253 -287 -253zM352 780c-73 0 -132 48 -136 128h66c7 -37 26 -59 69 -59c41 0 67 22 72 59h65c-3 -72 -56 -128 -136 -128z" />
    <glyph glyph-name="ubreve" unicode="&#x16d;" horiz-adv-x="564" 
d="M499 0h-92v75h-2c-39 -53 -85 -87 -162 -87c-112 0 -182 66 -182 179v370h93v-365c0 -68 42 -108 117 -108c83 0 135 62 135 146v327h93v-537zM280 620c-73 0 -132 48 -136 128h66c7 -37 26 -59 69 -59c41 0 67 22 72 59h65c-3 -72 -56 -128 -136 -128z" />
    <glyph glyph-name="Uring" unicode="&#x16e;" horiz-adv-x="704" 
d="M352 -11c-167 0 -287 74 -287 253v502h102v-493c0 -123 67 -175 187 -175c116 0 183 52 183 175v493h102v-502c0 -179 -124 -253 -287 -253zM353 738c-57 0 -103 45 -103 101s46 99 103 99c56 0 102 -43 102 -99s-46 -101 -102 -101zM353 780c32 0 55 24 55 59
c0 33 -23 58 -55 58c-33 0 -56 -25 -56 -58c0 -35 23 -59 56 -59z" />
    <glyph glyph-name="uring" unicode="&#x16f;" horiz-adv-x="564" 
d="M499 0h-92v75h-2c-39 -53 -85 -87 -162 -87c-112 0 -182 66 -182 179v370h93v-365c0 -68 42 -108 117 -108c83 0 135 62 135 146v327h93v-537zM281 599c-57 0 -103 45 -103 101s46 99 103 99c56 0 102 -43 102 -99s-46 -101 -102 -101zM281 641c32 0 55 24 55 59
c0 33 -23 58 -55 58c-33 0 -56 -25 -56 -58c0 -35 23 -59 56 -59z" />
    <glyph glyph-name="Uhungarumlaut" unicode="&#x170;" horiz-adv-x="704" 
d="M352 -11c-167 0 -287 74 -287 253v502h102v-493c0 -123 67 -175 187 -175c116 0 183 52 183 175v493h102v-502c0 -179 -124 -253 -287 -253zM386 785l31 125h97l-59 -125h-69zM240 785l30 125h99l-58 -125h-71z" />
    <glyph glyph-name="uhungarumlaut" unicode="&#x171;" horiz-adv-x="564" 
d="M499 0h-92v75h-2c-39 -53 -85 -87 -162 -87c-112 0 -182 66 -182 179v370h93v-365c0 -68 42 -108 117 -108c83 0 135 62 135 146v327h93v-537zM177 625l34 145h94l-60 -145h-68zM320 625l33 145h93l-59 -145h-67z" />
    <glyph glyph-name="Uogonek" unicode="&#x172;" horiz-adv-x="704" 
d="M400 -191c-76 0 -112 36 -112 88c0 43 30 72 61 92c-166 0 -284 75 -284 253v502h102v-493c0 -123 67 -175 187 -175c116 0 183 52 183 175v493h102v-502c0 -127 -61 -199 -153 -232c-56 -21 -112 -52 -112 -99c0 -23 14 -35 43 -35c15 0 30 3 41 7h3v-65
c-13 -4 -32 -9 -61 -9z" />
    <glyph glyph-name="uogonek" unicode="&#x173;" horiz-adv-x="564" 
d="M452 -191c-76 0 -112 36 -112 88c0 49 44 85 80 103h-13v75h-2c-39 -53 -85 -87 -162 -87c-112 0 -182 66 -182 179v370h93v-365c0 -68 42 -108 117 -108c83 0 135 62 135 146v327h93v-537c-41 -23 -73 -58 -73 -89c0 -23 14 -35 43 -35c15 0 30 3 41 7h3v-65
c-13 -4 -32 -9 -61 -9z" />
    <glyph glyph-name="Wcircumflex" unicode="&#x174;" horiz-adv-x="965" 
d="M212 0l-194 744h107l107 -438c9 -37 17 -86 24 -126c3 -23 7 -47 11 -71h2c4 25 8 49 12 72c7 40 16 89 27 126l120 437h108l116 -437c9 -37 20 -86 27 -126c4 -23 8 -47 12 -72h2c4 24 8 48 12 71c7 40 16 89 25 126l111 438h105l-207 -744h-99l-122 476
c-9 33 -17 79 -24 118c-4 22 -8 45 -11 68h-2c-4 -23 -8 -46 -12 -68c-7 -39 -16 -85 -24 -117l-131 -477h-102zM331 785l101 113h103l98 -113h-96l-54 61h-2l-56 -61h-94z" />
    <glyph glyph-name="wcircumflex" unicode="&#x175;" horiz-adv-x="781" 
d="M180 0l-170 537h99l84 -298c8 -31 17 -69 24 -101c4 -19 8 -37 11 -56h2c3 17 7 35 11 53c7 31 16 69 25 102l81 300h88l80 -300c7 -29 16 -67 23 -99c4 -19 8 -38 11 -57h2c3 18 7 36 10 54c7 31 14 71 25 104l89 298h96l-175 -537h-93l-79 296c-7 27 -15 63 -22 94
c-4 18 -8 37 -12 56h-2c-4 -19 -8 -38 -12 -56c-7 -31 -14 -69 -21 -94l-81 -296h-94zM243 629l97 123h103l94 -123h-94l-52 75h-2l-54 -75h-92z" />
    <glyph glyph-name="Ycircumflex" unicode="&#x176;" horiz-adv-x="678" 
d="M286 0v312l-268 432h114l134 -224c15 -27 33 -61 48 -89l25 -50h2c8 17 16 33 25 50c15 28 33 62 49 89l135 224h109l-271 -437v-307h-102zM190 785l101 113h103l98 -113h-96l-54 61h-2l-56 -61h-94z" />
    <glyph glyph-name="ycircumflex" unicode="&#x177;" horiz-adv-x="519" 
d="M130 -187c-31 0 -64 4 -79 11v80h4c11 -7 33 -10 56 -10c37 0 61 14 80 65c0 1 22 63 19 68l-205 510h101l111 -298c11 -31 22 -66 31 -95c5 -17 9 -34 14 -50h2c5 16 10 33 15 50c9 29 20 64 31 95l107 298h97l-228 -586c-46 -113 -85 -138 -156 -138zM115 629l97 123
h103l94 -123h-94l-52 75h-2l-54 -75h-92z" />
    <glyph glyph-name="Zacute" unicode="&#x179;" horiz-adv-x="668" 
d="M39 0v95l363 463c16 20 37 45 56 65c11 12 22 24 33 35v3c-15 -1 -31 -1 -47 -2c-27 -1 -61 -2 -86 -2h-292v87h539v-80l-358 -463c-19 -23 -43 -49 -63 -72c-12 -13 -24 -26 -35 -39v-3c16 1 32 1 49 2c28 1 62 2 90 2h334v-91h-583zM288 785l53 125h114l-89 -125h-78z
" />
    <glyph glyph-name="zacute" unicode="&#x17a;" horiz-adv-x="512" 
d="M44 0v72l240 313c11 15 27 32 40 47c7 9 15 17 24 26v3c-13 -1 -25 -1 -37 -2c-21 -1 -45 -1 -64 -1h-185v79h403v-58l-244 -319c-12 -15 -28 -34 -43 -50c-8 -9 -16 -19 -25 -28v-3c13 0 26 0 39 1c23 1 48 2 68 2h217v-82h-433zM224 625l53 145h114l-89 -145h-78z" />
    <glyph glyph-name="Zdotaccent" unicode="&#x17b;" horiz-adv-x="668" 
d="M39 0v95l363 463c16 20 37 45 56 65c11 12 22 24 33 35v3c-15 -1 -31 -1 -47 -2c-27 -1 -61 -2 -86 -2h-292v87h539v-80l-358 -463c-19 -23 -43 -49 -63 -72c-12 -13 -24 -26 -35 -39v-3c16 1 32 1 49 2c28 1 62 2 90 2h334v-91h-583zM283 785v108h97v-108h-97z" />
    <glyph glyph-name="zdotaccent" unicode="&#x17c;" horiz-adv-x="512" 
d="M44 0v72l240 313c11 15 27 32 40 47c7 9 15 17 24 26v3c-13 -1 -25 -1 -37 -2c-21 -1 -45 -1 -64 -1h-185v79h403v-58l-244 -319c-12 -15 -28 -34 -43 -50c-8 -9 -16 -19 -25 -28v-3c13 0 26 0 39 1c23 1 48 2 68 2h217v-82h-433zM219 636v108h97v-108h-97z" />
    <glyph glyph-name="Zcaron" unicode="&#x17d;" horiz-adv-x="668" 
d="M39 0v95l363 463c16 20 37 45 56 65c11 12 22 24 33 35v3c-15 -1 -31 -1 -47 -2c-27 -1 -61 -2 -86 -2h-292v87h539v-80l-358 -463c-19 -23 -43 -49 -63 -72c-12 -13 -24 -26 -35 -39v-3c16 1 32 1 49 2c28 1 62 2 90 2h334v-91h-583zM482 898l-101 -113h-103l-98 113h96
l54 -61h2l56 61h94z" />
    <glyph glyph-name="zcaron" unicode="&#x17e;" horiz-adv-x="512" 
d="M44 0v72l240 313c11 15 27 32 40 47c7 9 15 17 24 26v3c-13 -1 -25 -1 -37 -2c-21 -1 -45 -1 -64 -1h-185v79h403v-58l-244 -319c-12 -15 -28 -34 -43 -50c-8 -9 -16 -19 -25 -28v-3c13 0 26 0 39 1c23 1 48 2 68 2h217v-82h-433zM414 749l-97 -124h-103l-94 124h94
l52 -76h2l54 76h92z" />
    <glyph glyph-name="uni0218" unicode="&#x218;" horiz-adv-x="672" 
d="M350 -15c-208 0 -311 114 -319 256h101c12 -113 85 -174 221 -174c99 0 171 44 171 134c0 97 -86 120 -216 149c-133 27 -246 67 -246 209c0 125 106 199 258 199c184 0 264 -92 283 -219h-99c-13 91 -78 139 -183 139c-99 0 -162 -39 -162 -114c0 -81 81 -103 193 -127
c144 -29 275 -66 275 -232c0 -141 -116 -220 -277 -220zM388 -51v-90c0 -68 -41 -101 -109 -104v44c37 5 55 22 55 52v2h-54v96h108z" />
    <glyph glyph-name="uni0219" unicode="&#x219;" horiz-adv-x="522" 
d="M270 -16c-149 0 -232 70 -240 179h94c11 -77 72 -104 148 -104c85 0 121 37 121 85c0 59 -45 74 -140 93c-105 22 -200 44 -200 162c0 92 72 150 197 150c135 0 202 -63 214 -156h-93c-8 56 -46 86 -123 86c-73 0 -104 -34 -104 -75c0 -57 52 -66 143 -85
c107 -21 199 -45 199 -170c0 -109 -90 -165 -216 -165zM314 -51v-90c0 -68 -41 -101 -109 -104v44c37 5 55 22 55 52v2h-54v96h108z" />
    <glyph glyph-name="caron" unicode="&#x2c7;" 
d="M397 749l-97 -124h-103l-94 124h94l52 -76h2l54 76h92z" />
    <glyph glyph-name="uni02C9" unicode="&#x2c9;" 
d="M114 659v75h273v-75h-273z" />
    <glyph glyph-name="breve" unicode="&#x2d8;" 
d="M269 620c-73 0 -132 48 -136 128h66c7 -37 26 -59 69 -59c41 0 67 22 72 59h65c-3 -72 -56 -128 -136 -128z" />
    <glyph glyph-name="dotaccent" unicode="&#x2d9;" 
d="M202 636v108h97v-108h-97z" />
    <glyph glyph-name="ring" unicode="&#x2da;" 
d="M250 599c-57 0 -103 45 -103 101s46 99 103 99c56 0 102 -43 102 -99s-46 -101 -102 -101zM250 641c32 0 55 24 55 59c0 33 -23 58 -55 58c-33 0 -56 -25 -56 -58c0 -35 23 -59 56 -59z" />
    <glyph glyph-name="ogonek" unicode="&#x2db;" 
d="M240 -191c-76 0 -112 36 -112 88c0 49 44 85 80 103h69c-35 -28 -63 -60 -63 -89c0 -23 14 -35 43 -35c15 0 30 3 41 7h3v-65c-13 -4 -32 -9 -61 -9z" />
    <glyph glyph-name="hungarumlaut" unicode="&#x2dd;" 
d="M271 625l33 145h93l-59 -145h-67zM128 625l34 145h94l-60 -145h-68z" />
    <glyph glyph-name="uni0394" unicode="&#x394;" horiz-adv-x="709" 
d="M29 0v89l264 655h121l266 -656v-88h-651zM300 517l-173 -434h448l-172 434c-16 40 -29 78 -37 105c-5 16 -10 31 -13 45h-2c-4 -14 -9 -29 -14 -45c-9 -27 -21 -65 -37 -105z" />
    <glyph glyph-name="uni03A9" unicode="&#x3a9;" horiz-adv-x="770" 
d="M584 87v-2h138v-85h-294l-1 81c139 21 198 159 198 309c0 168 -93 282 -240 282c-148 0 -240 -114 -240 -282c0 -150 59 -288 198 -309l-1 -81h-295v85h138v2c-93 57 -143 157 -143 300c0 223 140 374 343 374s343 -151 343 -374c0 -143 -51 -243 -144 -300z" />
    <glyph glyph-name="uni03BC" unicode="&#x3bc;" horiz-adv-x="568" 
d="M158 22h-3c0 -7 0 -16 1 -26c1 -17 2 -42 2 -73v-105h-93v719h93v-365c0 -68 42 -108 117 -108c83 0 135 62 135 146v327h93v-537h-92v75h-2c-39 -53 -85 -87 -153 -87c-47 0 -75 9 -98 34z" />
    <glyph glyph-name="pi" unicode="&#x3c0;" horiz-adv-x="672" 
d="M30 465v72h607v-72h-103v-339c0 -39 16 -50 49 -50c17 0 33 4 42 7h4v-79c-16 -4 -45 -8 -70 -8c-65 0 -117 28 -117 109v360h-228v-465h-92v465h-92z" />
    <glyph glyph-name="fraction" unicode="&#x2044;" horiz-adv-x="206" 
d="M-278 -130l649 874h86l-650 -874h-85z" />
    <glyph glyph-name="uni2113" unicode="&#x2113;" horiz-adv-x="397" 
d="M85 270v342c0 100 63 140 141 140c88 0 133 -43 133 -164c0 -190 -77 -285 -181 -346v-92c0 -52 22 -73 65 -73c39 0 63 11 84 22h3v-79c-20 -13 -59 -23 -96 -23c-91 0 -149 40 -149 148v55c-19 -7 -44 -16 -63 -20v67c19 7 44 15 63 23zM232 385c27 47 46 114 46 203
c0 72 -20 90 -51 90s-49 -18 -49 -67v-297c21 19 39 44 54 71z" />
    <glyph glyph-name="Omega" unicode="&#x2126;" horiz-adv-x="770" 
d="M584 87v-2h138v-85h-294l-1 81c139 21 198 159 198 309c0 168 -93 282 -240 282c-148 0 -240 -114 -240 -282c0 -150 59 -288 198 -309l-1 -81h-295v85h138v2c-93 57 -143 157 -143 300c0 223 140 374 343 374s343 -151 343 -374c0 -143 -51 -243 -144 -300z" />
    <glyph glyph-name="estimated" unicode="&#x212e;" horiz-adv-x="685" 
d="M631 301h-444v-203c39 -39 92 -61 172 -61c121 0 183 56 216 149h52c-27 -114 -115 -197 -268 -197c-195 0 -306 132 -306 320c0 187 124 318 301 318c73 0 132 -22 179 -59c75 -63 99 -152 98 -267zM354 582c-73 0 -131 -25 -167 -62v-175h313v188
c-31 31 -82 49 -146 49z" />
    <glyph glyph-name="partialdiff" unicode="&#x2202;" horiz-adv-x="594" 
d="M444 415c-24 157 -112 226 -274 255v81c272 -35 371 -206 371 -451c0 -155 -81 -315 -266 -315c-141 0 -229 96 -229 220c0 153 105 273 255 273c53 0 110 -20 143 -63zM277 62c106 0 168 100 168 200c0 83 -47 140 -139 140c-100 0 -166 -80 -166 -196
c0 -84 45 -144 137 -144z" />
    <glyph glyph-name="Delta" unicode="&#x2206;" horiz-adv-x="709" 
d="M29 0v89l264 655h121l266 -656v-88h-651zM300 517l-173 -434h448l-172 434c-16 40 -29 78 -37 105c-5 16 -10 31 -13 45h-2c-4 -14 -9 -29 -14 -45c-9 -27 -21 -65 -37 -105z" />
    <glyph glyph-name="product" unicode="&#x220f;" horiz-adv-x="749" 
d="M82 744h585v-848h-103v758h-379v-758h-103v848z" />
    <glyph glyph-name="summation" unicode="&#x2211;" horiz-adv-x="670" 
d="M621 -104h-569v99l293 333v2l-293 320v94h559v-87h-439v-2l280 -302v-42l-287 -323v-2h456v-90z" />
    <glyph glyph-name="minus" unicode="&#x2212;" horiz-adv-x="601" 
d="M63 303v73h475v-73h-475z" />
    <glyph glyph-name="uni2215" unicode="&#x2215;" horiz-adv-x="206" 
d="M-278 -130l649 874h86l-650 -874h-85z" />
    <glyph glyph-name="uni2219" unicode="&#x2219;" horiz-adv-x="234" 
d="M63 271v110h108v-110h-108z" />
    <glyph glyph-name="radical" unicode="&#x221a;" horiz-adv-x="643" 
d="M28 239v87h153l71 -186c15 -40 28 -84 39 -117c6 -19 11 -38 16 -56h2c4 18 8 37 13 56c8 33 20 76 32 116l182 605h97l-266 -848h-116l-135 343h-88z" />
    <glyph glyph-name="infinity" unicode="&#x221e;" horiz-adv-x="744" 
d="M194 136c-105 0 -158 85 -158 181s54 180 158 180c82 0 138 -54 181 -121c43 67 94 121 174 121c96 0 159 -72 159 -180s-63 -181 -159 -181c-81 0 -131 54 -174 122c-43 -67 -98 -122 -181 -122zM199 416c-55 0 -77 -44 -77 -99s22 -100 77 -100c50 0 91 49 120 99
c-31 53 -69 100 -120 100zM544 217c55 0 78 45 78 100s-23 99 -78 99c-48 0 -83 -47 -114 -100c31 -50 67 -99 114 -99z" />
    <glyph glyph-name="integral" unicode="&#x222b;" horiz-adv-x="351" 
d="M122 -35v641c0 104 63 143 149 143c29 0 55 -3 76 -9v-78h-3c-11 4 -30 9 -58 9c-47 0 -71 -24 -71 -73v-642c0 -104 -65 -142 -149 -142c-32 0 -56 3 -76 10v78h3c11 -4 30 -10 58 -10c47 0 71 24 71 73z" />
    <glyph glyph-name="approxequal" unicode="&#x2248;" horiz-adv-x="601" 
d="M431 359c-82 0 -201 41 -259 41c-29 0 -45 -16 -46 -49h-71c3 80 48 122 115 122c86 0 199 -41 254 -41c35 0 49 17 50 48h72c-3 -73 -39 -121 -115 -121zM431 177c-82 0 -201 41 -259 41c-29 0 -45 -16 -46 -49h-71c3 80 48 122 115 122c86 0 199 -41 254 -41
c35 0 49 17 50 48h72c-3 -73 -39 -121 -115 -121z" />
    <glyph glyph-name="notequal" unicode="&#x2260;" horiz-adv-x="601" 
d="M64 382v73h266l63 123h71l-63 -123h136v-73h-173l-57 -113h230v-73h-267l-62 -123h-71l62 123h-135v73h172l57 113h-229z" />
    <glyph glyph-name="lessequal" unicode="&#x2264;" horiz-adv-x="548" 
d="M60 0v73h424v-73h-424zM484 121l-424 166v97l424 166v-83l-229 -85c-27 -11 -60 -21 -87 -30c-16 -5 -32 -10 -47 -15v-2c15 -5 31 -10 47 -15l87 -29l229 -86v-84z" />
    <glyph glyph-name="greaterequal" unicode="&#x2265;" horiz-adv-x="548" 
d="M488 73v-73h-424v73h424zM488 287l-424 -166v84l229 86c27 9 59 20 86 29l48 15v2l-48 15c-27 9 -59 19 -86 30l-229 85v83l424 -166v-97z" />
    <glyph glyph-name="lozenge" unicode="&#x25ca;" horiz-adv-x="584" 
d="M345 744l210 -373l-209 -371h-107l-210 373l209 371h107zM133 375l100 -186c21 -39 34 -68 45 -91c5 -13 10 -24 14 -34h2c3 10 8 21 13 34c9 21 24 51 45 91l98 179l-100 186c-21 39 -36 68 -45 91c-6 13 -11 24 -14 34h-2c-3 -10 -8 -21 -13 -34
c-9 -23 -24 -52 -45 -91z" />
    <glyph glyph-name="fi" unicode="&#xfb01;" horiz-adv-x="561" 
d="M31 464v73h83v74c0 49 13 85 38 107c27 23 66 31 118 31c15 0 31 -1 48 -2v-77c-88 5 -111 -7 -111 -63v-70h110v-73h-110v-464h-93v464h-83zM404 0v537h93v-537h-93zM402 636v108h97v-108h-97z" />
    <glyph glyph-name="fl" unicode="&#xfb02;" horiz-adv-x="564" 
d="M31 464v73h83v74c0 49 13 85 38 107c27 23 66 31 118 31c15 0 31 -1 48 -2v-77c-88 5 -111 -7 -111 -63v-70h110v-73h-110v-464h-93v464h-83zM404 0v744h93v-744h-93z" />
    </font>
</defs>
</svg>
